<svg width="635" height="629" viewBox="0 0 635 629" fill="none" xmlns="http://www.w3.org/2000/svg">
<g clip-path="url(#clip0_8_2383)">
<path d="M327.804 427.962C327.373 427.718 326.893 427.584 326.424 427.577C325.955 427.57 325.517 427.691 325.167 427.925C324.817 428.158 324.57 428.493 324.457 428.887C324.344 429.282 324.37 429.718 324.533 430.141C324.695 430.564 324.986 430.954 325.369 431.263C325.752 431.571 326.209 431.784 326.684 431.874C327.158 431.965 327.628 431.928 328.034 431.77C328.44 431.612 328.764 431.339 328.964 430.985C329.233 430.511 329.262 429.926 329.045 429.359C328.827 428.792 328.381 428.289 327.804 427.962Z" fill="#665E95"/>
<path d="M392.799 184.844C392.371 184.59 391.89 184.447 391.417 184.432C390.944 184.417 390.501 184.531 390.144 184.759C389.787 184.988 389.532 185.32 389.412 185.714C389.292 186.108 389.313 186.545 389.471 186.971C389.629 187.397 389.918 187.791 390.3 188.103C390.682 188.416 391.141 188.633 391.617 188.726C392.094 188.819 392.566 188.784 392.975 188.627C393.384 188.469 393.71 188.195 393.911 187.839C394.177 187.372 394.209 186.797 394.001 186.237C393.793 185.677 393.362 185.177 392.799 184.844Z" fill="#665E95"/>
<path d="M362.155 367.447C361.723 367.199 361.239 367.062 360.766 367.053C360.293 367.045 359.851 367.165 359.497 367.399C359.143 367.634 358.893 367.971 358.779 368.368C358.665 368.765 358.691 369.205 358.854 369.631C359.018 370.057 359.312 370.451 359.698 370.761C360.084 371.072 360.546 371.286 361.024 371.376C361.502 371.465 361.975 371.427 362.383 371.266C362.791 371.105 363.116 370.828 363.316 370.47C363.582 369.995 363.609 369.411 363.391 368.845C363.174 368.279 362.73 367.777 362.155 367.447Z" fill="#665E95"/>
<path d="M396.496 306.952C396.065 306.707 395.584 306.573 395.115 306.567C394.645 306.561 394.207 306.682 393.857 306.916C393.507 307.15 393.26 307.486 393.148 307.882C393.036 308.277 393.063 308.714 393.227 309.137C393.391 309.56 393.684 309.95 394.068 310.258C394.452 310.566 394.911 310.778 395.386 310.866C395.861 310.955 396.331 310.917 396.736 310.756C397.141 310.596 397.464 310.32 397.662 309.965C397.927 309.491 397.953 308.907 397.735 308.343C397.516 307.778 397.071 307.278 396.496 306.952Z" fill="#665E95"/>
<path d="M500.767 166.131C500.336 165.886 499.856 165.752 499.387 165.746C498.918 165.739 498.48 165.86 498.13 166.093C497.78 166.327 497.533 166.662 497.42 167.056C497.307 167.451 497.333 167.887 497.496 168.31C497.658 168.732 497.949 169.123 498.332 169.431C498.715 169.74 499.172 169.953 499.646 170.043C500.121 170.133 500.591 170.097 500.997 169.939C501.403 169.78 501.726 169.507 501.927 169.154C502.196 168.679 502.225 168.094 502.008 167.528C501.79 166.961 501.344 166.458 500.767 166.131V166.131Z" fill="#665E95"/>
<path d="M292.219 447.756C291.789 447.512 291.308 447.378 290.839 447.372C290.37 447.365 289.933 447.486 289.582 447.719C289.232 447.952 288.985 448.287 288.872 448.682C288.759 449.076 288.786 449.513 288.948 449.935C289.11 450.358 289.401 450.748 289.784 451.057C290.167 451.366 290.624 451.578 291.099 451.669C291.573 451.759 292.043 451.723 292.449 451.565C292.855 451.406 293.179 451.133 293.38 450.779C293.649 450.305 293.678 449.72 293.46 449.153C293.242 448.586 292.796 448.084 292.219 447.756Z" fill="#665E95"/>
<path d="M430.848 246.437C430.414 246.193 429.931 246.061 429.459 246.057C428.988 246.052 428.549 246.176 428.199 246.413C427.849 246.649 427.602 246.988 427.491 247.385C427.38 247.783 427.41 248.222 427.575 248.647C427.741 249.071 428.036 249.463 428.422 249.771C428.809 250.08 429.27 250.292 429.747 250.38C430.224 250.469 430.696 250.43 431.102 250.269C431.509 250.107 431.833 249.83 432.032 249.474C432.167 249.237 432.242 248.971 432.256 248.689C432.269 248.408 432.219 248.118 432.108 247.836C431.998 247.553 431.83 247.284 431.614 247.044C431.397 246.804 431.137 246.598 430.848 246.437Z" fill="#665E95"/>
<path d="M430.044 290.717C431.246 291.399 432.674 291.151 433.235 290.164C433.795 289.176 433.276 287.823 432.074 287.141C430.873 286.459 429.444 286.706 428.884 287.694C428.323 288.681 428.843 290.035 430.044 290.717Z" fill="#665E95"/>
<path d="M329.036 468.656C328.606 468.411 328.125 468.278 327.656 468.271C327.187 468.264 326.749 468.385 326.399 468.619C326.049 468.852 325.802 469.187 325.689 469.581C325.576 469.976 325.602 470.412 325.765 470.835C325.927 471.258 326.218 471.648 326.601 471.956C326.984 472.265 327.441 472.478 327.916 472.568C328.39 472.659 328.86 472.622 329.266 472.464C329.672 472.306 329.996 472.032 330.196 471.679C330.466 471.205 330.495 470.62 330.277 470.053C330.059 469.486 329.613 468.983 329.036 468.656Z" fill="#665E95"/>
<path d="M466.42 226.636C465.99 226.391 465.51 226.257 465.041 226.251C464.571 226.244 464.134 226.365 463.784 226.598C463.434 226.832 463.187 227.167 463.074 227.561C462.961 227.956 462.987 228.392 463.149 228.815C463.312 229.237 463.603 229.628 463.986 229.936C464.368 230.245 464.826 230.458 465.3 230.548C465.775 230.638 466.245 230.602 466.65 230.444C467.056 230.285 467.38 230.012 467.581 229.659C467.714 229.424 467.79 229.159 467.804 228.88C467.818 228.601 467.769 228.313 467.662 228.033C467.554 227.752 467.389 227.484 467.176 227.244C466.963 227.005 466.706 226.798 466.42 226.636Z" fill="#665E95"/>
<path d="M292.66 532.737C293.861 533.419 295.29 533.171 295.85 532.184C296.411 531.196 295.891 529.843 294.69 529.161C293.488 528.479 292.06 528.726 291.499 529.714C290.938 530.701 291.458 532.055 292.66 532.737Z" fill="#665E95"/>
<path d="M501.993 206.834C501.563 206.59 501.083 206.456 500.613 206.45C500.144 206.443 499.707 206.564 499.357 206.797C499.006 207.03 498.759 207.365 498.646 207.76C498.533 208.154 498.56 208.591 498.722 209.013C498.884 209.436 499.175 209.826 499.558 210.135C499.941 210.444 500.399 210.656 500.873 210.747C501.347 210.837 501.817 210.801 502.223 210.643C502.629 210.484 502.953 210.211 503.154 209.857C503.423 209.383 503.452 208.798 503.234 208.231C503.017 207.664 502.57 207.162 501.993 206.834Z" fill="#665E95"/>
<path d="M257.873 508.261C257.442 508.017 256.962 507.883 256.493 507.877C256.024 507.87 255.586 507.991 255.236 508.224C254.886 508.457 254.639 508.792 254.526 509.187C254.413 509.581 254.439 510.018 254.602 510.44C254.764 510.863 255.055 511.254 255.438 511.562C255.821 511.871 256.278 512.084 256.753 512.174C257.227 512.264 257.697 512.228 258.103 512.07C258.509 511.911 258.833 511.638 259.033 511.284C259.303 510.81 259.332 510.225 259.114 509.658C258.896 509.092 258.45 508.589 257.873 508.261Z" fill="#665E95"/>
<path d="M397.728 347.646C397.298 347.401 396.818 347.268 396.348 347.261C395.879 347.254 395.442 347.375 395.092 347.608C394.741 347.842 394.494 348.177 394.381 348.571C394.268 348.966 394.295 349.402 394.457 349.825C394.619 350.247 394.91 350.638 395.293 350.946C395.676 351.255 396.134 351.468 396.608 351.558C397.082 351.649 397.552 351.612 397.958 351.454C398.364 351.296 398.688 351.022 398.889 350.669C399.158 350.194 399.187 349.61 398.969 349.043C398.752 348.476 398.305 347.973 397.728 347.646Z" fill="#665E95"/>
<path d="M363.382 408.151C362.952 407.906 362.472 407.773 362.002 407.766C361.533 407.759 361.096 407.88 360.745 408.113C360.395 408.347 360.148 408.682 360.035 409.076C359.922 409.471 359.949 409.907 360.111 410.33C360.273 410.752 360.564 411.143 360.947 411.451C361.33 411.76 361.787 411.973 362.262 412.063C362.736 412.154 363.206 412.117 363.612 411.959C364.018 411.801 364.342 411.527 364.543 411.174C364.676 410.939 364.752 410.674 364.765 410.395C364.779 410.116 364.731 409.828 364.623 409.548C364.515 409.267 364.35 408.999 364.137 408.759C363.924 408.52 363.668 408.313 363.382 408.151Z" fill="#665E95"/>
<path d="M395.257 266.241C394.827 265.997 394.347 265.863 393.878 265.856C393.408 265.85 392.971 265.971 392.621 266.204C392.271 266.437 392.024 266.772 391.911 267.167C391.798 267.561 391.824 267.998 391.986 268.42C392.149 268.843 392.44 269.233 392.823 269.542C393.205 269.851 393.663 270.063 394.137 270.154C394.612 270.244 395.082 270.208 395.488 270.049C395.893 269.891 396.217 269.618 396.418 269.264C396.551 269.029 396.627 268.765 396.641 268.486C396.655 268.207 396.606 267.919 396.499 267.638C396.391 267.358 396.226 267.09 396.013 266.85C395.8 266.61 395.543 266.403 395.257 266.241Z" fill="#665E95"/>
<path d="M255.414 426.864C254.984 426.62 254.504 426.486 254.034 426.479C253.565 426.472 253.128 426.593 252.778 426.827C252.427 427.06 252.18 427.395 252.067 427.789C251.954 428.184 251.981 428.62 252.143 429.043C252.305 429.466 252.596 429.856 252.979 430.165C253.362 430.473 253.82 430.686 254.294 430.776C254.768 430.867 255.238 430.83 255.644 430.672C256.05 430.514 256.374 430.24 256.575 429.887C256.844 429.413 256.873 428.828 256.655 428.261C256.438 427.694 255.991 427.191 255.414 426.864Z" fill="#665E95"/>
<path d="M326.565 387.251C326.135 387.007 325.655 386.873 325.185 386.867C324.716 386.86 324.279 386.981 323.929 387.214C323.578 387.447 323.331 387.782 323.218 388.177C323.105 388.571 323.132 389.008 323.294 389.43C323.456 389.853 323.747 390.243 324.13 390.552C324.513 390.861 324.971 391.073 325.445 391.164C325.919 391.254 326.389 391.218 326.795 391.06C327.201 390.901 327.525 390.628 327.726 390.274C327.859 390.04 327.935 389.775 327.949 389.496C327.962 389.217 327.914 388.929 327.806 388.648C327.698 388.368 327.533 388.1 327.32 387.86C327.107 387.62 326.851 387.414 326.565 387.251Z" fill="#665E95"/>
<path d="M428.371 165.042C427.941 164.798 427.461 164.664 426.992 164.658C426.522 164.651 426.085 164.772 425.735 165.005C425.385 165.238 425.138 165.573 425.025 165.968C424.912 166.362 424.938 166.799 425.1 167.221C425.263 167.644 425.554 168.035 425.937 168.343C426.319 168.652 426.777 168.865 427.251 168.955C427.726 169.045 428.196 169.009 428.602 168.851C429.008 168.692 429.331 168.419 429.532 168.065C429.801 167.591 429.83 167.006 429.613 166.439C429.395 165.872 428.948 165.37 428.371 165.042Z" fill="#665E95"/>
<path d="M394.031 225.538C393.598 225.289 393.115 225.152 392.641 225.144C392.168 225.136 391.726 225.256 391.373 225.49C391.019 225.724 390.769 226.061 390.654 226.459C390.54 226.856 390.566 227.296 390.73 227.722C390.893 228.148 391.187 228.541 391.573 228.852C391.96 229.162 392.421 229.376 392.899 229.466C393.377 229.556 393.851 229.518 394.259 229.357C394.667 229.195 394.992 228.918 395.192 228.561C395.461 228.086 395.49 227.501 395.272 226.935C395.054 226.368 394.608 225.865 394.031 225.538Z" fill="#665E95"/>
<path d="M356.423 248.925C357.624 249.607 359.053 249.359 359.613 248.372C360.174 247.384 359.654 246.031 358.453 245.349C357.251 244.667 355.823 244.914 355.262 245.902C354.701 246.889 355.221 248.243 356.423 248.925Z" fill="#665E95"/>
<path d="M359.679 286.052C359.248 285.808 358.768 285.674 358.298 285.668C357.828 285.661 357.39 285.783 357.04 286.017C356.69 286.251 356.443 286.587 356.331 286.982C356.219 287.377 356.247 287.814 356.41 288.237C356.574 288.66 356.867 289.051 357.251 289.359C357.635 289.666 358.094 289.878 358.569 289.967C359.044 290.056 359.514 290.017 359.919 289.857C360.324 289.696 360.647 289.421 360.845 289.066C361.11 288.591 361.137 288.008 360.918 287.444C360.699 286.879 360.254 286.379 359.679 286.052Z" fill="#665E95"/>
<path d="M324.106 305.854C323.676 305.61 323.196 305.476 322.727 305.469C322.257 305.462 321.82 305.583 321.47 305.817C321.12 306.05 320.873 306.385 320.76 306.779C320.647 307.174 320.673 307.61 320.835 308.033C320.998 308.456 321.289 308.846 321.672 309.154C322.054 309.463 322.512 309.676 322.986 309.766C323.461 309.857 323.931 309.82 324.337 309.662C324.743 309.504 325.066 309.23 325.267 308.877C325.536 308.403 325.565 307.818 325.348 307.251C325.13 306.684 324.683 306.181 324.106 305.854Z" fill="#665E95"/>
<path d="M289.76 366.359C289.33 366.115 288.85 365.981 288.381 365.974C287.911 365.967 287.474 366.088 287.124 366.322C286.774 366.555 286.526 366.89 286.414 367.284C286.301 367.679 286.327 368.115 286.489 368.538C286.652 368.961 286.943 369.351 287.325 369.659C287.708 369.968 288.166 370.181 288.64 370.271C289.115 370.362 289.584 370.325 289.99 370.167C290.396 370.009 290.72 369.735 290.921 369.382C291.054 369.147 291.13 368.883 291.144 368.604C291.158 368.325 291.109 368.036 291.001 367.756C290.894 367.475 290.729 367.207 290.516 366.967C290.303 366.728 290.046 366.521 289.76 366.359Z" fill="#665E95"/>
<path d="M219.038 490.945C220.24 491.627 221.668 491.379 222.229 490.392C222.789 489.404 222.269 488.051 221.068 487.369C219.866 486.687 218.438 486.934 217.877 487.922C217.317 488.909 217.836 490.263 219.038 490.945Z" fill="#665E95"/>
<path d="M429.604 205.736C429.173 205.492 428.693 205.358 428.224 205.351C427.755 205.345 427.317 205.466 426.967 205.699C426.617 205.932 426.37 206.267 426.257 206.662C426.144 207.056 426.17 207.492 426.333 207.915C426.495 208.338 426.786 208.728 427.169 209.037C427.552 209.345 428.009 209.558 428.483 209.649C428.958 209.739 429.428 209.703 429.834 209.544C430.24 209.386 430.563 209.113 430.764 208.759C430.897 208.524 430.973 208.26 430.987 207.981C431.001 207.702 430.952 207.414 430.845 207.133C430.737 206.852 430.572 206.585 430.359 206.345C430.146 206.105 429.889 205.898 429.604 205.736Z" fill="#665E95"/>
<path d="M465.623 270.905C466.824 271.588 468.253 271.34 468.813 270.352C469.374 269.365 468.854 268.012 467.653 267.329C466.451 266.647 465.023 266.895 464.462 267.882C463.901 268.87 464.421 270.223 465.623 270.905Z" fill="#665E95"/>
<path d="M360.911 326.746C360.481 326.502 360.001 326.368 359.532 326.362C359.062 326.355 358.625 326.476 358.275 326.709C357.925 326.942 357.677 327.277 357.564 327.672C357.452 328.066 357.478 328.503 357.64 328.925C357.803 329.348 358.094 329.738 358.476 330.047C358.859 330.356 359.317 330.568 359.791 330.659C360.266 330.749 360.735 330.713 361.141 330.555C361.547 330.396 361.871 330.123 362.072 329.769C362.341 329.295 362.37 328.71 362.152 328.143C361.935 327.576 361.488 327.074 360.911 326.746Z" fill="#665E95"/>
<path d="M325.339 346.548C324.906 346.299 324.422 346.162 323.949 346.154C323.476 346.146 323.034 346.266 322.68 346.5C322.327 346.734 322.077 347.071 321.962 347.469C321.848 347.866 321.874 348.306 322.037 348.732C322.201 349.158 322.495 349.551 322.881 349.862C323.267 350.172 323.729 350.386 324.207 350.476C324.685 350.566 325.158 350.528 325.566 350.367C325.975 350.205 326.299 349.928 326.499 349.571C326.765 349.095 326.792 348.511 326.575 347.945C326.357 347.379 325.913 346.877 325.339 346.548Z" fill="#665E95"/>
<path d="M256.641 467.568C256.21 467.323 255.73 467.189 255.261 467.183C254.792 467.176 254.354 467.297 254.004 467.53C253.654 467.764 253.407 468.099 253.294 468.493C253.181 468.888 253.207 469.324 253.37 469.747C253.532 470.169 253.823 470.56 254.206 470.868C254.589 471.177 255.046 471.39 255.521 471.48C255.995 471.57 256.465 471.534 256.871 471.376C257.277 471.217 257.601 470.944 257.801 470.591C257.936 470.356 258.014 470.092 258.028 469.813C258.043 469.533 257.995 469.245 257.887 468.964C257.779 468.682 257.613 468.414 257.399 468.175C257.185 467.935 256.928 467.729 256.641 467.568Z" fill="#665E95"/>
<path d="M290.987 407.063C290.557 406.818 290.076 406.684 289.607 406.678C289.138 406.671 288.7 406.792 288.35 407.025C288 407.259 287.753 407.594 287.64 407.988C287.527 408.383 287.553 408.819 287.716 409.242C287.878 409.664 288.169 410.055 288.552 410.363C288.935 410.672 289.392 410.885 289.867 410.975C290.341 411.065 290.811 411.029 291.217 410.871C291.623 410.712 291.947 410.439 292.147 410.086C292.417 409.611 292.446 409.026 292.228 408.46C292.01 407.893 291.564 407.39 290.987 407.063Z" fill="#665E95"/>
<path d="M463.95 145.231C463.519 144.987 463.039 144.853 462.57 144.846C462.101 144.84 461.663 144.961 461.313 145.194C460.963 145.427 460.716 145.762 460.603 146.157C460.49 146.551 460.516 146.987 460.679 147.41C460.841 147.833 461.132 148.223 461.515 148.532C461.898 148.84 462.355 149.053 462.83 149.144C463.304 149.234 463.774 149.198 464.18 149.039C464.586 148.881 464.91 148.608 465.11 148.254C465.38 147.78 465.408 147.195 465.191 146.628C464.973 146.061 464.527 145.559 463.95 145.231V145.231Z" fill="#665E95"/>
<path d="M293.458 488.467C293.027 488.223 292.547 488.089 292.078 488.082C291.608 488.076 291.171 488.196 290.821 488.43C290.471 488.663 290.224 488.998 290.111 489.393C289.998 489.787 290.024 490.223 290.186 490.646C290.349 491.069 290.64 491.459 291.023 491.768C291.406 492.076 291.863 492.289 292.337 492.379C292.812 492.47 293.282 492.433 293.688 492.275C294.094 492.117 294.417 491.844 294.618 491.49C294.753 491.256 294.83 490.991 294.845 490.712C294.86 490.433 294.812 490.144 294.704 489.863C294.596 489.582 294.43 489.314 294.216 489.074C294.002 488.834 293.744 488.628 293.458 488.467Z" fill="#665E95"/>
<path d="M472.534 430.104C472.101 429.856 471.618 429.719 471.144 429.711C470.671 429.702 470.229 429.823 469.876 430.057C469.522 430.291 469.272 430.628 469.157 431.025C469.043 431.423 469.069 431.862 469.233 432.288C469.396 432.715 469.69 433.108 470.076 433.418C470.462 433.729 470.924 433.943 471.402 434.033C471.88 434.123 472.354 434.085 472.762 433.923C473.17 433.762 473.495 433.485 473.694 433.127C473.96 432.652 473.987 432.068 473.77 431.502C473.552 430.936 473.108 430.434 472.534 430.104Z" fill="#665E95"/>
<path d="M541.226 309.094C540.794 308.846 540.31 308.709 539.837 308.701C539.363 308.692 538.922 308.813 538.568 309.047C538.214 309.281 537.964 309.618 537.85 310.015C537.735 310.413 537.761 310.852 537.925 311.278C538.089 311.704 538.382 312.098 538.769 312.408C539.155 312.719 539.616 312.933 540.094 313.023C540.573 313.113 541.046 313.074 541.454 312.913C541.862 312.752 542.187 312.475 542.387 312.117C542.656 311.643 542.685 311.058 542.467 310.491C542.25 309.924 541.803 309.422 541.226 309.094Z" fill="#665E95"/>
<path d="M573.542 252.165C573.947 252.355 574.385 252.44 574.802 252.41C574.199 251.205 573.46 250.042 572.839 248.84C572.75 248.998 572.472 248.984 572.376 249.152C572.111 249.626 572.085 250.209 572.304 250.774C572.522 251.339 572.967 251.839 573.542 252.165Z" fill="#665E95"/>
<path d="M438.182 490.619C437.752 490.375 437.272 490.241 436.802 490.234C436.333 490.228 435.896 490.349 435.546 490.582C435.195 490.815 434.948 491.15 434.835 491.545C434.722 491.939 434.749 492.375 434.911 492.798C435.073 493.221 435.364 493.611 435.747 493.92C436.13 494.228 436.588 494.441 437.062 494.532C437.536 494.622 438.006 494.586 438.412 494.427C438.818 494.269 439.142 493.996 439.343 493.642C439.612 493.168 439.641 492.583 439.423 492.016C439.206 491.449 438.759 490.947 438.182 490.619Z" fill="#665E95"/>
<path d="M506.874 369.609C506.444 369.364 505.963 369.231 505.493 369.224C505.023 369.218 504.586 369.339 504.235 369.573C503.885 369.807 503.639 370.143 503.527 370.539C503.414 370.934 503.442 371.371 503.606 371.794C503.769 372.217 504.062 372.607 504.446 372.915C504.831 373.223 505.289 373.435 505.764 373.523C506.239 373.612 506.709 373.574 507.114 373.413C507.52 373.253 507.842 372.978 508.041 372.622C508.306 372.148 508.332 371.565 508.113 371C507.895 370.436 507.449 369.935 506.874 369.609Z" fill="#665E95"/>
<path d="M471.35 389.438C470.919 389.193 470.439 389.059 469.97 389.053C469.501 389.046 469.063 389.167 468.713 389.4C468.363 389.634 468.116 389.969 468.003 390.363C467.89 390.758 467.916 391.194 468.079 391.617C468.241 392.039 468.532 392.43 468.915 392.738C469.298 393.047 469.755 393.26 470.23 393.35C470.704 393.44 471.174 393.404 471.58 393.246C471.986 393.087 472.31 392.814 472.51 392.461C472.78 391.986 472.808 391.402 472.591 390.835C472.373 390.268 471.927 389.765 471.35 389.438Z" fill="#665E95"/>
<path d="M437.004 449.943C436.573 449.698 436.093 449.564 435.624 449.558C435.155 449.551 434.717 449.672 434.367 449.905C434.017 450.139 433.77 450.474 433.657 450.868C433.544 451.263 433.57 451.699 433.733 452.122C433.895 452.544 434.186 452.935 434.569 453.243C434.952 453.552 435.409 453.765 435.884 453.855C436.358 453.945 436.828 453.909 437.234 453.751C437.64 453.592 437.964 453.319 438.164 452.966C438.298 452.731 438.373 452.466 438.387 452.187C438.401 451.908 438.352 451.62 438.245 451.34C438.137 451.059 437.972 450.791 437.759 450.551C437.546 450.312 437.289 450.105 437.004 449.943Z" fill="#665E95"/>
<path d="M402.657 510.448C402.227 510.203 401.747 510.07 401.278 510.063C400.808 510.056 400.371 510.177 400.021 510.41C399.671 510.644 399.424 510.979 399.311 511.373C399.198 511.768 399.224 512.204 399.386 512.627C399.549 513.049 399.84 513.44 400.223 513.748C400.605 514.057 401.063 514.27 401.537 514.36C402.012 514.45 402.482 514.414 402.888 514.256C403.294 514.098 403.617 513.824 403.818 513.471C404.087 512.996 404.116 512.412 403.899 511.845C403.681 511.278 403.234 510.775 402.657 510.448Z" fill="#665E95"/>
<path d="M542.501 349.825C542.071 349.581 541.59 349.447 541.121 349.44C540.652 349.434 540.214 349.555 539.864 349.788C539.514 350.021 539.267 350.356 539.154 350.751C539.041 351.145 539.067 351.581 539.23 352.004C539.392 352.427 539.683 352.817 540.066 353.126C540.449 353.434 540.906 353.647 541.381 353.738C541.855 353.828 542.325 353.792 542.731 353.633C543.137 353.475 543.461 353.202 543.661 352.848C543.795 352.613 543.87 352.349 543.884 352.07C543.898 351.791 543.85 351.503 543.742 351.222C543.634 350.941 543.469 350.674 543.256 350.434C543.043 350.194 542.787 349.987 542.501 349.825Z" fill="#665E95"/>
<path d="M110.558 387.007C110.827 386.532 110.856 385.948 110.638 385.381C110.421 384.814 109.974 384.311 109.397 383.984C108.82 383.656 108.16 383.53 107.562 383.634C106.963 383.738 106.476 384.062 106.207 384.537C106.089 384.744 106.208 384.982 106.186 385.217C106.576 386.013 107.06 386.785 107.48 387.585C108.045 387.885 108.681 387.992 109.255 387.885C109.829 387.777 110.296 387.462 110.558 387.007Z" fill="#665E95"/>
<path d="M473.808 470.835C473.378 470.591 472.898 470.457 472.429 470.45C471.959 470.444 471.522 470.565 471.172 470.798C470.822 471.031 470.575 471.366 470.462 471.761C470.349 472.155 470.375 472.591 470.537 473.014C470.7 473.437 470.991 473.827 471.374 474.136C471.756 474.444 472.214 474.657 472.688 474.748C473.163 474.838 473.633 474.802 474.039 474.643C474.445 474.485 474.768 474.212 474.969 473.858C475.102 473.623 475.178 473.359 475.192 473.08C475.206 472.801 475.157 472.513 475.05 472.232C474.942 471.951 474.777 471.684 474.564 471.444C474.351 471.204 474.094 470.997 473.808 470.835Z" fill="#665E95"/>
<path d="M403.836 551.124C403.55 550.96 403.241 550.845 402.926 550.784C402.61 550.723 402.295 550.718 401.998 550.77C401.702 550.821 401.429 550.928 401.197 551.084C400.965 551.239 400.777 551.441 400.645 551.677C400.393 552.145 400.366 552.713 400.569 553.267C402.055 553.17 403.581 553.226 405.048 553.105C405.052 552.735 404.941 552.354 404.727 552.005C404.513 551.655 404.205 551.35 403.836 551.124Z" fill="#665E95"/>
<path d="M508.155 410.33C507.724 410.086 507.244 409.952 506.775 409.945C506.306 409.939 505.868 410.06 505.518 410.293C505.168 410.526 504.921 410.861 504.808 411.256C504.695 411.65 504.721 412.086 504.884 412.509C505.046 412.932 505.337 413.322 505.72 413.631C506.103 413.939 506.56 414.152 507.035 414.243C507.509 414.333 507.979 414.297 508.385 414.138C508.791 413.98 509.115 413.707 509.315 413.353C509.584 412.879 509.613 412.294 509.396 411.727C509.178 411.16 508.732 410.658 508.155 410.33Z" fill="#665E95"/>
<path d="M439.462 531.34C439.032 531.096 438.552 530.962 438.083 530.955C437.613 530.949 437.176 531.07 436.826 531.303C436.476 531.536 436.228 531.871 436.116 532.266C436.003 532.66 436.029 533.096 436.191 533.519C436.354 533.942 436.645 534.332 437.027 534.641C437.41 534.949 437.868 535.162 438.342 535.253C438.817 535.343 439.286 535.307 439.692 535.148C440.098 534.99 440.422 534.717 440.623 534.363C440.892 533.889 440.921 533.304 440.703 532.737C440.486 532.17 440.039 531.668 439.462 531.34Z" fill="#665E95"/>
<path d="M503.666 332.509C504.868 333.191 506.296 332.943 506.857 331.956C507.417 330.968 506.898 329.615 505.696 328.933C504.494 328.251 503.066 328.498 502.505 329.486C501.945 330.473 502.465 331.827 503.666 332.509Z" fill="#665E95"/>
<path d="M576.847 289.32C576.417 289.076 575.936 288.942 575.467 288.935C574.998 288.929 574.561 289.05 574.21 289.283C573.86 289.516 573.613 289.851 573.5 290.246C573.387 290.64 573.414 291.076 573.576 291.499C573.738 291.922 574.029 292.312 574.412 292.621C574.795 292.929 575.252 293.142 575.727 293.233C576.201 293.323 576.671 293.287 577.077 293.128C577.483 292.97 577.807 292.697 578.008 292.343C578.141 292.108 578.217 291.844 578.23 291.565C578.244 291.286 578.196 290.998 578.088 290.717C577.98 290.436 577.815 290.169 577.602 289.929C577.389 289.689 577.133 289.482 576.847 289.32Z" fill="#665E95"/>
<path d="M401.425 469.754C400.995 469.51 400.515 469.376 400.046 469.369C399.576 469.362 399.139 469.483 398.789 469.717C398.439 469.95 398.191 470.285 398.078 470.679C397.966 471.074 397.992 471.51 398.154 471.933C398.317 472.356 398.608 472.746 398.99 473.054C399.373 473.363 399.831 473.576 400.305 473.666C400.78 473.757 401.249 473.72 401.655 473.562C402.061 473.404 402.385 473.13 402.586 472.777C402.855 472.303 402.884 471.718 402.666 471.151C402.449 470.584 402.002 470.081 401.425 469.754Z" fill="#665E95"/>
<path d="M503.237 247.535C502.808 247.289 502.327 247.152 501.857 247.144C501.387 247.135 500.948 247.254 500.596 247.486C500.244 247.718 499.995 248.052 499.881 248.447C499.766 248.841 499.791 249.278 499.952 249.701C500.113 250.125 500.404 250.516 500.786 250.826C501.169 251.135 501.627 251.349 502.102 251.44C502.577 251.531 503.047 251.495 503.454 251.337C503.861 251.179 504.185 250.905 504.386 250.551C504.654 250.079 504.684 249.496 504.469 248.931C504.253 248.366 503.811 247.864 503.237 247.535Z" fill="#665E95"/>
<path d="M468.891 308.04C468.461 307.794 467.981 307.657 467.511 307.649C467.041 307.64 466.602 307.759 466.25 307.991C465.898 308.223 465.649 308.557 465.534 308.952C465.42 309.346 465.445 309.783 465.606 310.206C465.767 310.63 466.058 311.021 466.44 311.331C466.823 311.64 467.281 311.854 467.756 311.945C468.231 312.036 468.701 312 469.108 311.842C469.514 311.684 469.839 311.41 470.04 311.056C470.308 310.584 470.338 310.001 470.122 309.436C469.907 308.871 469.465 308.369 468.891 308.04Z" fill="#665E95"/>
<path d="M434.545 368.545C434.115 368.299 433.635 368.162 433.165 368.154C432.694 368.145 432.256 368.264 431.904 368.496C431.552 368.728 431.303 369.063 431.188 369.457C431.074 369.851 431.098 370.288 431.26 370.711C431.421 371.135 431.711 371.526 432.094 371.836C432.477 372.145 432.935 372.359 433.409 372.45C433.884 372.541 434.355 372.505 434.762 372.347C435.168 372.189 435.493 371.915 435.694 371.561C435.962 371.089 435.992 370.506 435.776 369.941C435.561 369.376 435.118 368.874 434.545 368.545Z" fill="#665E95"/>
<path d="M398.96 388.34C398.528 388.091 398.044 387.954 397.571 387.946C397.097 387.938 396.656 388.058 396.302 388.292C395.948 388.526 395.698 388.863 395.584 389.261C395.469 389.658 395.496 390.098 395.659 390.524C395.823 390.95 396.116 391.343 396.503 391.654C396.889 391.964 397.35 392.178 397.829 392.268C398.307 392.358 398.78 392.32 399.188 392.159C399.596 391.997 399.921 391.72 400.121 391.363C400.386 390.887 400.414 390.303 400.196 389.737C399.979 389.171 399.535 388.669 398.96 388.34Z" fill="#665E95"/>
<path d="M365.853 489.555C365.423 489.309 364.943 489.172 364.472 489.164C364.002 489.155 363.563 489.274 363.211 489.506C362.86 489.738 362.611 490.073 362.496 490.467C362.381 490.861 362.406 491.298 362.567 491.721C362.729 492.145 363.019 492.536 363.402 492.846C363.785 493.155 364.242 493.369 364.717 493.46C365.192 493.551 365.663 493.515 366.069 493.357C366.476 493.199 366.8 492.925 367.001 492.571C367.27 492.099 367.299 491.516 367.084 490.951C366.869 490.386 366.426 489.884 365.853 489.555Z" fill="#665E95"/>
<path d="M330.262 509.36C329.832 509.115 329.352 508.981 328.883 508.975C328.413 508.968 327.976 509.089 327.626 509.322C327.276 509.555 327.028 509.891 326.916 510.285C326.803 510.68 326.829 511.116 326.991 511.538C327.154 511.961 327.445 512.352 327.827 512.66C328.21 512.969 328.668 513.182 329.142 513.272C329.617 513.362 330.086 513.326 330.492 513.168C330.898 513.009 331.222 512.736 331.423 512.382C331.558 512.148 331.635 511.884 331.65 511.605C331.665 511.325 331.617 511.037 331.509 510.756C331.401 510.474 331.235 510.206 331.021 509.967C330.807 509.727 330.549 509.521 330.262 509.36Z" fill="#665E95"/>
<path d="M362.579 452.43C363.78 453.113 365.209 452.865 365.769 451.877C366.33 450.89 365.81 449.537 364.608 448.854C363.407 448.172 361.978 448.42 361.418 449.407C360.857 450.395 361.377 451.748 362.579 452.43Z" fill="#665E95"/>
<path d="M504.469 288.229C504.037 287.981 503.553 287.844 503.08 287.835C502.607 287.827 502.165 287.947 501.811 288.181C501.457 288.415 501.207 288.753 501.093 289.15C500.979 289.547 501.005 289.987 501.168 290.413C501.332 290.839 501.626 291.233 502.012 291.543C502.398 291.854 502.86 292.067 503.338 292.157C503.816 292.247 504.289 292.209 504.697 292.048C505.105 291.887 505.43 291.61 505.63 291.252C505.899 290.778 505.928 290.193 505.711 289.626C505.493 289.059 505.046 288.556 504.469 288.229Z" fill="#665E95"/>
<path d="M435.777 409.239C435.345 408.991 434.861 408.854 434.388 408.845C433.914 408.837 433.473 408.957 433.119 409.191C432.765 409.425 432.515 409.763 432.401 410.16C432.286 410.557 432.312 410.997 432.476 411.423C432.64 411.849 432.933 412.243 433.319 412.553C433.706 412.864 434.167 413.078 434.645 413.167C435.124 413.257 435.597 413.219 436.005 413.058C436.413 412.897 436.738 412.62 436.938 412.262C437.203 411.787 437.23 411.203 437.013 410.637C436.796 410.071 436.352 409.569 435.777 409.239Z" fill="#665E95"/>
<path d="M400.199 429.05C399.769 428.804 399.289 428.667 398.819 428.659C398.348 428.65 397.91 428.769 397.558 429.001C397.206 429.233 396.957 429.568 396.842 429.962C396.727 430.356 396.752 430.793 396.914 431.216C397.075 431.64 397.365 432.031 397.748 432.341C398.131 432.65 398.588 432.864 399.063 432.955C399.538 433.046 400.009 433.01 400.415 432.852C400.822 432.694 401.146 432.42 401.347 432.066C401.616 431.594 401.645 431.011 401.43 430.446C401.215 429.881 400.772 429.379 400.199 429.05Z" fill="#665E95"/>
<path d="M431.277 331.41C432.478 332.093 433.907 331.845 434.467 330.857C435.028 329.87 434.508 328.517 433.306 327.834C432.105 327.152 430.676 327.4 430.116 328.387C429.555 329.375 430.075 330.728 431.277 331.41Z" fill="#665E95"/>
<path d="M367.079 530.259C366.649 530.015 366.169 529.881 365.699 529.874C365.23 529.867 364.793 529.988 364.443 530.222C364.092 530.455 363.845 530.79 363.732 531.184C363.619 531.579 363.646 532.015 363.808 532.438C363.97 532.861 364.261 533.251 364.644 533.56C365.027 533.868 365.485 534.081 365.959 534.171C366.433 534.262 366.903 534.225 367.309 534.067C367.715 533.909 368.039 533.635 368.24 533.282C368.375 533.048 368.452 532.783 368.467 532.504C368.481 532.225 368.433 531.936 368.325 531.655C368.217 531.374 368.052 531.106 367.838 530.866C367.624 530.626 367.366 530.42 367.079 530.259Z" fill="#665E95"/>
<path d="M538.81 227.734C538.38 227.489 537.899 227.356 537.43 227.349C536.961 227.342 536.523 227.463 536.173 227.696C535.823 227.93 535.576 228.265 535.463 228.659C535.35 229.054 535.377 229.49 535.539 229.913C535.701 230.335 535.992 230.726 536.375 231.034C536.758 231.343 537.215 231.556 537.69 231.646C538.164 231.737 538.634 231.7 539.04 231.542C539.446 231.384 539.77 231.11 539.971 230.757C540.24 230.282 540.269 229.698 540.051 229.131C539.833 228.564 539.387 228.061 538.81 227.734Z" fill="#665E95"/>
<path d="M540.042 268.428C539.612 268.183 539.132 268.049 538.662 268.043C538.193 268.036 537.756 268.157 537.406 268.39C537.055 268.624 536.808 268.959 536.695 269.353C536.582 269.748 536.609 270.184 536.771 270.607C536.933 271.029 537.224 271.42 537.607 271.728C537.99 272.037 538.448 272.25 538.922 272.34C539.396 272.43 539.866 272.394 540.272 272.236C540.678 272.077 541.002 271.804 541.203 271.451C541.336 271.216 541.412 270.951 541.425 270.672C541.439 270.393 541.391 270.105 541.283 269.825C541.175 269.544 541.01 269.276 540.797 269.036C540.584 268.797 540.328 268.59 540.042 268.428Z" fill="#665E95"/>
<path d="M470.118 348.744C469.687 348.499 469.206 348.365 468.736 348.359C468.266 348.353 467.829 348.474 467.479 348.708C467.129 348.942 466.882 349.278 466.77 349.673C466.658 350.069 466.685 350.506 466.849 350.929C467.013 351.352 467.305 351.742 467.69 352.05C468.074 352.358 468.533 352.569 469.008 352.658C469.483 352.747 469.952 352.709 470.358 352.548C470.763 352.388 471.085 352.112 471.284 351.757C471.549 351.283 471.575 350.699 471.357 350.135C471.138 349.57 470.693 349.07 470.118 348.744Z" fill="#665E95"/>
<path d="M465.188 185.942C464.757 185.702 464.277 185.573 463.81 185.57C463.342 185.568 462.908 185.692 462.561 185.928C462.215 186.164 461.971 186.5 461.862 186.895C461.752 187.289 461.782 187.725 461.946 188.146C462.11 188.567 462.402 188.956 462.785 189.262C463.169 189.569 463.626 189.78 464.099 189.869C464.572 189.958 465.041 189.921 465.445 189.762C465.85 189.604 466.173 189.331 466.373 188.978C466.507 188.742 466.583 188.475 466.596 188.194C466.609 187.913 466.559 187.623 466.449 187.341C466.339 187.058 466.171 186.789 465.954 186.549C465.738 186.309 465.478 186.102 465.188 185.942Z" fill="#665E95"/>
<path d="M211.209 161.765C210.779 161.521 210.299 161.387 209.829 161.38C209.36 161.373 208.923 161.494 208.573 161.728C208.223 161.961 207.975 162.296 207.862 162.69C207.75 163.085 207.776 163.521 207.938 163.944C208.101 164.367 208.392 164.757 208.774 165.066C209.157 165.374 209.615 165.587 210.089 165.677C210.563 165.768 211.033 165.731 211.439 165.573C211.845 165.415 212.169 165.141 212.37 164.788C212.503 164.553 212.579 164.289 212.593 164.01C212.606 163.731 212.558 163.443 212.45 163.162C212.343 162.881 212.177 162.613 211.965 162.374C211.752 162.134 211.495 161.927 211.209 161.765Z" fill="#665E95"/>
<path d="M106.141 346.856C106.571 347.1 107.051 347.234 107.521 347.241C107.99 347.247 108.427 347.126 108.777 346.893C109.127 346.66 109.375 346.325 109.488 345.93C109.601 345.536 109.574 345.1 109.412 344.677C109.25 344.254 108.959 343.864 108.576 343.555C108.193 343.247 107.735 343.034 107.261 342.943C106.787 342.853 106.317 342.889 105.911 343.048C105.505 343.206 105.181 343.479 104.98 343.833C104.711 344.307 104.682 344.892 104.9 345.459C105.117 346.026 105.564 346.528 106.141 346.856Z" fill="#665E95"/>
<path d="M245.555 101.26C245.125 101.016 244.645 100.882 244.176 100.875C243.706 100.868 243.269 100.989 242.919 101.223C242.569 101.456 242.322 101.791 242.209 102.185C242.096 102.58 242.122 103.016 242.284 103.439C242.447 103.862 242.738 104.252 243.121 104.561C243.503 104.869 243.961 105.082 244.435 105.172C244.91 105.263 245.38 105.226 245.785 105.068C246.191 104.91 246.515 104.636 246.716 104.283C246.849 104.048 246.925 103.784 246.939 103.505C246.953 103.226 246.904 102.938 246.796 102.657C246.689 102.376 246.524 102.108 246.311 101.869C246.098 101.629 245.841 101.422 245.555 101.26Z" fill="#665E95"/>
<path d="M142.517 282.775C142.087 282.531 141.606 282.397 141.137 282.39C140.668 282.384 140.23 282.504 139.88 282.738C139.53 282.971 139.283 283.306 139.17 283.7C139.057 284.095 139.084 284.531 139.246 284.954C139.408 285.377 139.699 285.767 140.082 286.076C140.465 286.384 140.922 286.597 141.397 286.687C141.871 286.778 142.341 286.741 142.747 286.583C143.153 286.425 143.477 286.152 143.678 285.798C143.811 285.563 143.887 285.299 143.9 285.02C143.914 284.741 143.866 284.453 143.758 284.172C143.65 283.891 143.485 283.623 143.272 283.384C143.059 283.144 142.803 282.937 142.517 282.775Z" fill="#665E95"/>
<path d="M176.863 222.27C176.433 222.026 175.953 221.892 175.483 221.885C175.014 221.878 174.577 221.999 174.226 222.233C173.876 222.466 173.629 222.801 173.516 223.195C173.403 223.59 173.43 224.026 173.592 224.449C173.754 224.872 174.045 225.262 174.428 225.571C174.811 225.879 175.269 226.092 175.743 226.182C176.217 226.273 176.687 226.236 177.093 226.078C177.499 225.92 177.823 225.647 178.024 225.293C178.293 224.819 178.322 224.234 178.104 223.667C177.886 223.1 177.44 222.597 176.863 222.27Z" fill="#665E95"/>
<path d="M576.061 333.597C577.263 334.279 578.691 334.031 579.252 333.044C579.812 332.056 579.293 330.703 578.091 330.021C576.89 329.339 575.461 329.586 574.901 330.574C574.34 331.561 574.86 332.915 576.061 333.597Z" fill="#665E95"/>
<path d="M213.668 243.162C213.238 242.918 212.757 242.784 212.288 242.778C211.819 242.771 211.381 242.892 211.031 243.125C210.681 243.358 210.434 243.694 210.321 244.088C210.208 244.482 210.235 244.919 210.397 245.341C210.559 245.764 210.85 246.155 211.233 246.463C211.616 246.772 212.073 246.985 212.548 247.075C213.022 247.165 213.492 247.129 213.898 246.971C214.304 246.812 214.628 246.539 214.829 246.185C214.964 245.951 215.041 245.687 215.055 245.407C215.07 245.128 215.022 244.84 214.914 244.559C214.806 244.277 214.641 244.009 214.427 243.77C214.213 243.53 213.955 243.324 213.668 243.162Z" fill="#665E95"/>
<path d="M541.715 394.102C542.917 394.784 544.345 394.536 544.906 393.549C545.466 392.561 544.947 391.208 543.745 390.526C542.543 389.844 541.115 390.091 540.554 391.079C539.994 392.066 540.514 393.42 541.715 394.102Z" fill="#665E95"/>
<path d="M248.014 182.657C247.584 182.413 247.104 182.279 246.634 182.273C246.165 182.266 245.728 182.387 245.378 182.62C245.027 182.853 244.78 183.188 244.667 183.583C244.554 183.977 244.581 184.414 244.743 184.836C244.905 185.259 245.196 185.65 245.579 185.958C245.962 186.267 246.42 186.48 246.894 186.57C247.368 186.66 247.838 186.624 248.244 186.466C248.65 186.307 248.974 186.034 249.175 185.68C249.31 185.446 249.387 185.182 249.402 184.902C249.416 184.623 249.368 184.335 249.26 184.053C249.152 183.772 248.987 183.504 248.773 183.265C248.559 183.025 248.301 182.819 248.014 182.657Z" fill="#665E95"/>
<path d="M246.739 141.926C246.307 141.678 245.823 141.541 245.35 141.533C244.877 141.524 244.435 141.645 244.081 141.879C243.727 142.113 243.477 142.45 243.363 142.847C243.249 143.245 243.275 143.685 243.438 144.111C243.602 144.537 243.896 144.93 244.282 145.241C244.668 145.551 245.13 145.765 245.608 145.855C246.086 145.945 246.559 145.907 246.967 145.745C247.375 145.584 247.7 145.307 247.9 144.949C248.169 144.475 248.198 143.89 247.981 143.323C247.763 142.756 247.316 142.254 246.739 141.926Z" fill="#665E95"/>
<path d="M282.36 122.152C281.93 121.908 281.45 121.774 280.98 121.768C280.511 121.761 280.074 121.882 279.724 122.115C279.374 122.348 279.126 122.683 279.013 123.078C278.901 123.472 278.927 123.909 279.089 124.331C279.251 124.754 279.542 125.145 279.925 125.453C280.308 125.762 280.766 125.975 281.24 126.065C281.714 126.155 282.184 126.119 282.59 125.961C282.996 125.802 283.32 125.529 283.521 125.175C283.656 124.941 283.733 124.677 283.748 124.397C283.762 124.118 283.714 123.83 283.607 123.548C283.499 123.267 283.333 122.999 283.119 122.76C282.905 122.52 282.647 122.314 282.36 122.152Z" fill="#665E95"/>
<path d="M507.363 454.617C507.795 454.865 508.278 455.002 508.751 455.01C509.224 455.019 509.665 454.899 510.019 454.666C510.373 454.433 510.623 454.096 510.739 453.7C510.854 453.303 510.829 452.864 510.667 452.438C510.505 452.013 510.212 451.619 509.828 451.308C509.443 450.997 508.982 450.782 508.505 450.69C508.027 450.599 507.554 450.635 507.145 450.794C506.736 450.953 506.41 451.228 506.208 451.584C506.073 451.819 505.995 452.083 505.98 452.363C505.965 452.643 506.013 452.932 506.12 453.214C506.227 453.496 506.392 453.765 506.606 454.005C506.819 454.246 507.077 454.454 507.363 454.617Z" fill="#665E95"/>
<path d="M279.056 84.9973C279.631 85.3237 280.288 85.4498 280.885 85.348C281.482 85.2463 281.969 84.9249 282.241 84.4542C282.399 84.1668 282.466 83.8352 282.437 83.49C282.408 83.1448 282.283 82.7971 282.075 82.4791C280.683 82.5511 279.264 82.5297 277.891 82.6252C277.788 83.039 277.847 83.4954 278.057 83.9241C278.268 84.3528 278.618 84.7299 279.056 84.9973Z" fill="#665E95"/>
<path d="M212.388 202.441C211.957 202.197 211.476 202.063 211.006 202.056C210.536 202.05 210.099 202.172 209.749 202.406C209.399 202.64 209.152 202.976 209.04 203.371C208.928 203.766 208.955 204.203 209.119 204.626C209.283 205.049 209.575 205.439 209.96 205.747C210.344 206.055 210.803 206.267 211.278 206.356C211.753 206.444 212.222 206.406 212.628 206.246C213.033 206.085 213.355 205.81 213.554 205.454C213.819 204.98 213.845 204.397 213.627 203.832C213.408 203.268 212.963 202.768 212.388 202.441Z" fill="#665E95"/>
<path d="M143.695 323.451C143.265 323.207 142.785 323.073 142.316 323.067C141.846 323.06 141.409 323.181 141.059 323.414C140.709 323.647 140.462 323.982 140.349 324.377C140.236 324.771 140.262 325.208 140.424 325.63C140.587 326.053 140.878 326.444 141.26 326.752C141.643 327.061 142.101 327.274 142.575 327.364C143.05 327.454 143.519 327.418 143.925 327.26C144.331 327.101 144.655 326.828 144.856 326.474C145.125 326 145.154 325.415 144.936 324.848C144.719 324.281 144.272 323.779 143.695 323.451Z" fill="#665E95"/>
<path d="M178.047 262.936C177.615 262.688 177.131 262.551 176.658 262.543C176.184 262.534 175.743 262.655 175.389 262.889C175.035 263.123 174.785 263.46 174.671 263.858C174.556 264.255 174.582 264.695 174.746 265.121C174.91 265.547 175.203 265.94 175.59 266.251C175.976 266.561 176.437 266.775 176.915 266.865C177.394 266.955 177.867 266.917 178.275 266.756C178.683 266.594 179.008 266.317 179.208 265.959C179.473 265.484 179.5 264.9 179.283 264.334C179.066 263.768 178.622 263.266 178.047 262.936Z" fill="#665E95"/>
<path d="M147.47 445.591C147.47 445.591 147.47 445.591 147.374 445.536C147.802 446.014 148.294 446.463 148.728 446.958C148.499 446.398 148.047 445.907 147.47 445.591Z" fill="#665E95"/>
<path d="M173.607 185.142C174.037 185.386 174.517 185.52 174.986 185.527C175.456 185.534 175.893 185.413 176.243 185.179C176.593 184.946 176.84 184.611 176.953 184.217C177.066 183.822 177.04 183.386 176.878 182.963C176.715 182.54 176.424 182.15 176.041 181.841C175.659 181.533 175.201 181.32 174.727 181.23C174.252 181.139 173.782 181.176 173.377 181.334C172.971 181.492 172.647 181.766 172.446 182.119C172.177 182.593 172.148 183.178 172.366 183.745C172.583 184.312 173.03 184.815 173.607 185.142Z" fill="#665E95"/>
<path d="M139.255 245.657C139.687 245.905 140.17 246.042 140.643 246.051C141.116 246.059 141.557 245.94 141.911 245.706C142.264 245.473 142.515 245.137 142.63 244.74C142.745 244.344 142.72 243.905 142.558 243.479C142.396 243.053 142.104 242.659 141.719 242.348C141.334 242.037 140.874 241.822 140.396 241.73C139.919 241.639 139.446 241.675 139.037 241.834C138.628 241.993 138.302 242.268 138.1 242.624C137.964 242.859 137.887 243.124 137.872 243.403C137.857 243.683 137.904 243.972 138.011 244.254C138.119 244.536 138.284 244.805 138.497 245.046C138.711 245.287 138.968 245.494 139.255 245.657Z" fill="#665E95"/>
<path d="M138.028 204.953C138.459 205.195 138.939 205.327 139.407 205.331C139.876 205.336 140.312 205.213 140.66 204.979C141.009 204.744 141.254 204.409 141.365 204.014C141.476 203.619 141.448 203.184 141.285 202.762C141.122 202.34 140.83 201.95 140.447 201.643C140.064 201.335 139.607 201.123 139.133 201.033C138.659 200.944 138.19 200.98 137.785 201.139C137.379 201.297 137.056 201.57 136.856 201.924C136.722 202.159 136.646 202.425 136.633 202.705C136.619 202.985 136.668 203.274 136.777 203.555C136.886 203.837 137.053 204.105 137.268 204.345C137.482 204.585 137.741 204.792 138.028 204.953Z" fill="#665E95"/>
<path d="M172.374 144.448C172.805 144.69 173.285 144.822 173.754 144.826C174.222 144.831 174.658 144.708 175.006 144.474C175.355 144.239 175.6 143.904 175.711 143.509C175.822 143.114 175.795 142.679 175.631 142.257C175.468 141.835 175.176 141.445 174.793 141.138C174.41 140.83 173.953 140.618 173.479 140.528C173.005 140.439 172.536 140.475 172.131 140.634C171.726 140.792 171.402 141.065 171.202 141.418C171.068 141.654 170.992 141.92 170.979 142.2C170.965 142.48 171.015 142.769 171.124 143.05C171.233 143.332 171.399 143.6 171.614 143.84C171.829 144.08 172.087 144.287 172.374 144.448Z" fill="#665E95"/>
<path d="M103.682 265.458C104.113 265.7 104.593 265.832 105.061 265.836C105.53 265.841 105.966 265.718 106.314 265.484C106.662 265.249 106.908 264.914 107.019 264.519C107.13 264.125 107.102 263.689 106.939 263.267C106.776 262.845 106.484 262.455 106.101 262.148C105.718 261.84 105.261 261.628 104.787 261.538C104.313 261.449 103.844 261.486 103.439 261.644C103.033 261.802 102.71 262.075 102.509 262.429C102.376 262.664 102.3 262.93 102.287 263.21C102.273 263.49 102.322 263.779 102.431 264.06C102.54 264.342 102.707 264.611 102.922 264.85C103.136 265.09 103.395 265.297 103.682 265.458Z" fill="#665E95"/>
<path d="M104.914 306.152C105.345 306.397 105.826 306.531 106.296 306.537C106.765 306.543 107.203 306.422 107.553 306.188C107.903 305.954 108.15 305.618 108.262 305.222C108.374 304.827 108.347 304.39 108.183 303.967C108.019 303.544 107.727 303.154 107.342 302.846C106.958 302.538 106.499 302.327 106.024 302.238C105.549 302.149 105.079 302.187 104.674 302.348C104.269 302.508 103.947 302.784 103.748 303.139C103.483 303.613 103.457 304.197 103.675 304.761C103.894 305.326 104.339 305.826 104.914 306.152Z" fill="#665E95"/>
<path d="M103.672 183.975C103.921 183.816 104.239 183.761 104.39 183.494C104.541 183.227 104.405 183.019 104.428 182.784C104.22 183.15 103.946 183.464 103.739 183.83C103.723 183.886 103.7 183.925 103.672 183.975Z" fill="#665E95"/>
<path d="M473.017 515.122C474.219 515.804 475.647 515.556 476.208 514.569C476.768 513.581 476.249 512.228 475.047 511.546C473.846 510.864 472.417 511.111 471.856 512.099C471.296 513.086 471.816 514.44 473.017 515.122Z" fill="#665E95"/>
<path d="M209.983 121.061C209.55 120.813 209.066 120.676 208.593 120.668C208.12 120.659 207.678 120.78 207.324 121.014C206.971 121.248 206.721 121.585 206.606 121.982C206.492 122.38 206.518 122.819 206.682 123.245C206.845 123.671 207.139 124.065 207.525 124.375C207.911 124.686 208.373 124.9 208.851 124.99C209.329 125.08 209.802 125.041 210.211 124.88C210.619 124.719 210.943 124.442 211.143 124.084C211.412 123.61 211.441 123.025 211.224 122.458C211.006 121.891 210.56 121.389 209.983 121.061Z" fill="#665E95"/>
<path d="M577.312 374.314C577.742 374.558 578.222 374.692 578.691 374.699C579.161 374.706 579.598 374.585 579.948 374.351C580.298 374.118 580.546 373.783 580.658 373.389C580.771 372.994 580.745 372.558 580.583 372.135C580.42 371.712 580.129 371.322 579.747 371.013C579.364 370.705 578.906 370.492 578.432 370.402C577.957 370.311 577.488 370.348 577.082 370.506C576.676 370.664 576.352 370.938 576.151 371.291C575.882 371.765 575.853 372.35 576.071 372.917C576.288 373.484 576.735 373.987 577.312 374.314Z" fill="#665E95"/>
<path d="M508.619 495.324C509.05 495.568 509.53 495.702 509.999 495.709C510.469 495.716 510.906 495.595 511.256 495.361C511.606 495.128 511.853 494.793 511.966 494.399C512.079 494.004 512.053 493.568 511.891 493.145C511.728 492.722 511.437 492.332 511.054 492.024C510.671 491.715 510.214 491.502 509.74 491.412C509.265 491.321 508.795 491.358 508.389 491.516C507.983 491.674 507.66 491.948 507.459 492.301C507.19 492.775 507.161 493.36 507.378 493.927C507.596 494.494 508.042 494.997 508.619 495.324Z" fill="#665E95"/>
<path d="M542.966 434.819C543.396 435.063 543.876 435.197 544.345 435.204C544.815 435.211 545.252 435.09 545.602 434.856C545.952 434.623 546.199 434.288 546.312 433.894C546.425 433.499 546.399 433.063 546.237 432.64C546.074 432.217 545.783 431.827 545.4 431.519C545.018 431.21 544.56 430.997 544.086 430.907C543.611 430.816 543.141 430.853 542.735 431.011C542.33 431.169 542.006 431.443 541.805 431.796C541.536 432.27 541.507 432.855 541.724 433.422C541.942 433.989 542.389 434.492 542.966 434.819Z" fill="#665E95"/>
<path d="M427.145 124.339C426.717 124.085 426.236 123.942 425.763 123.927C425.291 123.912 424.847 124.026 424.49 124.254C424.133 124.483 423.878 124.815 423.759 125.209C423.639 125.603 423.659 126.04 423.817 126.466C423.975 126.892 424.264 127.286 424.646 127.598C425.028 127.911 425.487 128.127 425.963 128.221C426.44 128.314 426.912 128.279 427.321 128.121C427.73 127.964 428.056 127.689 428.257 127.334C428.523 126.867 428.555 126.292 428.347 125.732C428.139 125.172 427.708 124.672 427.145 124.339Z" fill="#665E95"/>
<path d="M102.438 224.758C102.869 225.01 103.352 225.152 103.827 225.165C104.301 225.178 104.746 225.061 105.103 224.83C105.46 224.6 105.714 224.265 105.833 223.868C105.952 223.472 105.93 223.032 105.77 222.605C105.61 222.178 105.319 221.783 104.934 221.469C104.55 221.156 104.089 220.939 103.61 220.846C103.132 220.753 102.657 220.789 102.247 220.947C101.837 221.106 101.51 221.382 101.307 221.738C101.036 222.209 101.002 222.791 101.214 223.357C101.426 223.922 101.866 224.426 102.438 224.758Z" fill="#665E95"/>
<path d="M547.364 474.946C547.562 474.592 547.628 474.174 547.554 473.744C547.48 473.315 547.268 472.894 546.947 472.534C546.625 472.175 546.207 471.893 545.746 471.724C545.285 471.555 544.801 471.506 544.356 471.585C543.911 471.663 543.524 471.865 543.244 472.164C542.965 472.464 542.805 472.848 542.784 473.267C542.764 473.687 542.885 474.124 543.131 474.523C543.378 474.922 543.738 475.265 544.168 475.509C544.748 475.835 545.409 475.958 546.008 475.853C546.607 475.747 547.095 475.421 547.364 474.946Z" fill="#665E95"/>
<path d="M578.52 414.994C579.721 415.676 581.15 415.429 581.71 414.441C582.271 413.454 581.751 412.1 580.55 411.418C579.348 410.736 577.92 410.984 577.359 411.971C576.799 412.959 577.318 414.312 578.52 414.994Z" fill="#665E95"/>
<path d="M136.79 164.243C137.991 164.925 139.42 164.677 139.98 163.69C140.541 162.702 140.021 161.349 138.82 160.667C137.618 159.985 136.19 160.232 135.629 161.22C135.069 162.207 135.588 163.561 136.79 164.243Z" fill="#665E95"/>
<path d="M355.994 163.951C355.564 163.705 355.084 163.568 354.614 163.56C354.143 163.551 353.705 163.67 353.353 163.902C353.001 164.134 352.752 164.469 352.637 164.863C352.522 165.257 352.547 165.694 352.709 166.117C352.87 166.541 353.16 166.932 353.543 167.242C353.926 167.551 354.384 167.765 354.858 167.856C355.333 167.947 355.804 167.911 356.211 167.753C356.617 167.595 356.942 167.321 357.143 166.967C357.277 166.734 357.354 166.47 357.369 166.192C357.384 165.914 357.337 165.627 357.23 165.346C357.124 165.066 356.96 164.798 356.747 164.559C356.535 164.32 356.279 164.113 355.994 163.951Z" fill="#665E95"/>
<path d="M251.717 304.756C251.284 304.508 250.801 304.371 250.327 304.362C249.854 304.354 249.412 304.474 249.059 304.708C248.705 304.942 248.455 305.279 248.34 305.677C248.226 306.074 248.252 306.514 248.416 306.94C248.579 307.366 248.873 307.759 249.259 308.07C249.646 308.38 250.107 308.594 250.585 308.684C251.063 308.774 251.537 308.736 251.945 308.575C252.353 308.414 252.678 308.136 252.878 307.779C253.143 307.303 253.17 306.72 252.953 306.154C252.736 305.588 252.291 305.085 251.717 304.756Z" fill="#665E95"/>
<path d="M184.263 466.476C183.833 466.23 183.353 466.094 182.883 466.085C182.413 466.076 181.974 466.195 181.622 466.427C181.27 466.659 181.021 466.994 180.906 467.388C180.792 467.782 180.817 468.219 180.978 468.643C181.139 469.066 181.429 469.457 181.812 469.767C182.195 470.076 182.653 470.29 183.128 470.381C183.603 470.472 184.073 470.436 184.48 470.278C184.886 470.12 185.211 469.846 185.412 469.492C185.546 469.259 185.623 468.996 185.638 468.717C185.654 468.439 185.606 468.152 185.5 467.871C185.393 467.591 185.229 467.324 185.016 467.084C184.804 466.845 184.548 466.638 184.263 466.476Z" fill="#665E95"/>
<path d="M252.955 345.466C252.526 345.22 252.045 345.083 251.575 345.075C251.105 345.066 250.666 345.185 250.314 345.417C249.962 345.649 249.713 345.984 249.599 346.378C249.484 346.772 249.509 347.209 249.67 347.632C249.831 348.056 250.122 348.447 250.505 348.757C250.887 349.066 251.345 349.28 251.82 349.371C252.295 349.462 252.765 349.426 253.172 349.268C253.579 349.11 253.903 348.836 254.104 348.482C254.239 348.249 254.316 347.986 254.331 347.707C254.346 347.429 254.299 347.142 254.192 346.861C254.085 346.581 253.921 346.314 253.709 346.074C253.497 345.835 253.241 345.628 252.955 345.466Z" fill="#665E95"/>
<path d="M287.302 284.961C286.872 284.715 286.392 284.578 285.921 284.57C285.451 284.561 285.012 284.68 284.66 284.912C284.309 285.144 284.059 285.479 283.945 285.873C283.83 286.267 283.855 286.704 284.016 287.127C284.178 287.551 284.468 287.942 284.851 288.252C285.233 288.561 285.691 288.775 286.166 288.866C286.641 288.957 287.112 288.921 287.518 288.763C287.925 288.605 288.249 288.331 288.45 287.977C288.585 287.744 288.662 287.481 288.677 287.202C288.692 286.924 288.645 286.637 288.538 286.356C288.431 286.076 288.267 285.809 288.055 285.569C287.843 285.33 287.587 285.123 287.302 284.961Z" fill="#665E95"/>
<path d="M183.019 425.776C182.589 425.531 182.109 425.397 181.639 425.391C181.17 425.384 180.733 425.505 180.382 425.738C180.032 425.972 179.785 426.307 179.672 426.701C179.559 427.096 179.586 427.532 179.748 427.955C179.91 428.377 180.201 428.768 180.584 429.076C180.967 429.385 181.424 429.598 181.899 429.688C182.373 429.778 182.843 429.742 183.249 429.584C183.655 429.426 183.979 429.152 184.18 428.799C184.315 428.564 184.392 428.3 184.407 428.021C184.421 427.741 184.373 427.453 184.265 427.172C184.157 426.891 183.992 426.622 183.778 426.383C183.564 426.143 183.306 425.937 183.019 425.776Z" fill="#665E95"/>
<path d="M390.34 103.446C389.91 103.2 389.43 103.063 388.96 103.055C388.49 103.046 388.051 103.165 387.699 103.397C387.347 103.629 387.098 103.964 386.983 104.358C386.869 104.752 386.893 105.189 387.055 105.612C387.216 106.036 387.506 106.427 387.889 106.737C388.272 107.046 388.73 107.26 389.205 107.351C389.68 107.442 390.15 107.406 390.557 107.248C390.963 107.09 391.288 106.816 391.489 106.462C391.623 106.229 391.7 105.965 391.715 105.687C391.731 105.409 391.683 105.122 391.577 104.841C391.47 104.561 391.306 104.293 391.093 104.054C390.881 103.815 390.625 103.608 390.34 103.446Z" fill="#665E95"/>
<path d="M217.365 365.271C216.935 365.026 216.455 364.892 215.985 364.886C215.516 364.879 215.079 365 214.729 365.233C214.378 365.467 214.131 365.802 214.018 366.196C213.905 366.591 213.932 367.027 214.094 367.45C214.256 367.872 214.547 368.263 214.93 368.571C215.313 368.88 215.771 369.093 216.245 369.183C216.719 369.273 217.189 369.237 217.595 369.079C218.001 368.92 218.325 368.647 218.526 368.294C218.795 367.819 218.824 367.234 218.606 366.668C218.389 366.101 217.942 365.598 217.365 365.271Z" fill="#665E95"/>
<path d="M144.976 364.173C144.545 363.928 144.065 363.794 143.596 363.788C143.127 363.781 142.689 363.902 142.339 364.135C141.989 364.369 141.742 364.704 141.629 365.098C141.516 365.493 141.542 365.929 141.705 366.352C141.867 366.774 142.158 367.165 142.541 367.473C142.924 367.782 143.381 367.995 143.855 368.085C144.33 368.175 144.8 368.139 145.206 367.981C145.612 367.822 145.935 367.549 146.136 367.195C146.271 366.961 146.348 366.697 146.363 366.418C146.378 366.138 146.33 365.85 146.222 365.569C146.114 365.287 145.948 365.019 145.734 364.78C145.52 364.54 145.262 364.334 144.976 364.173Z" fill="#665E95"/>
<path d="M219.836 446.675C219.406 446.431 218.925 446.297 218.456 446.29C217.987 446.284 217.549 446.405 217.199 446.638C216.849 446.871 216.602 447.206 216.489 447.601C216.376 447.995 216.402 448.431 216.565 448.854C216.727 449.277 217.018 449.667 217.401 449.976C217.784 450.284 218.241 450.497 218.716 450.588C219.19 450.678 219.66 450.642 220.066 450.483C220.472 450.325 220.796 450.052 220.996 449.698C221.132 449.464 221.209 449.199 221.223 448.92C221.238 448.641 221.19 448.352 221.082 448.071C220.974 447.79 220.808 447.522 220.595 447.282C220.381 447.043 220.123 446.836 219.836 446.675Z" fill="#665E95"/>
<path d="M288.534 325.655C288.101 325.407 287.618 325.27 287.144 325.261C286.671 325.253 286.229 325.373 285.876 325.608C285.522 325.842 285.272 326.179 285.157 326.576C285.043 326.974 285.069 327.413 285.233 327.839C285.396 328.265 285.69 328.659 286.076 328.969C286.462 329.28 286.924 329.494 287.402 329.584C287.88 329.673 288.353 329.635 288.762 329.474C289.17 329.313 289.494 329.036 289.694 328.678C289.96 328.203 289.987 327.619 289.77 327.053C289.552 326.487 289.108 325.985 288.534 325.655Z" fill="#665E95"/>
<path d="M218.609 405.971C218.18 405.725 217.699 405.589 217.229 405.58C216.759 405.571 216.32 405.69 215.968 405.922C215.616 406.154 215.367 406.489 215.252 406.883C215.138 407.277 215.163 407.714 215.324 408.137C215.485 408.561 215.776 408.952 216.158 409.262C216.541 409.571 216.999 409.785 217.474 409.876C217.949 409.967 218.419 409.931 218.826 409.773C219.233 409.615 219.557 409.341 219.758 408.987C219.892 408.754 219.97 408.491 219.985 408.212C220 407.934 219.953 407.647 219.846 407.366C219.739 407.086 219.575 406.819 219.363 406.579C219.15 406.34 218.894 406.133 218.609 405.971Z" fill="#665E95"/>
<path d="M254.182 386.17C253.752 385.926 253.272 385.792 252.802 385.785C252.333 385.779 251.896 385.9 251.545 386.133C251.195 386.366 250.948 386.701 250.835 387.096C250.722 387.49 250.749 387.926 250.911 388.349C251.073 388.772 251.364 389.162 251.747 389.471C252.13 389.779 252.588 389.992 253.062 390.082C253.536 390.173 254.006 390.137 254.412 389.978C254.818 389.82 255.142 389.547 255.343 389.193C255.476 388.958 255.552 388.694 255.565 388.415C255.579 388.136 255.531 387.848 255.423 387.567C255.315 387.286 255.15 387.018 254.937 386.779C254.724 386.539 254.468 386.332 254.182 386.17Z" fill="#665E95"/>
<path d="M391.567 144.15C391.136 143.906 390.656 143.772 390.187 143.765C389.718 143.758 389.28 143.879 388.93 144.113C388.58 144.346 388.333 144.681 388.22 145.075C388.107 145.47 388.133 145.906 388.296 146.329C388.458 146.752 388.749 147.142 389.132 147.451C389.515 147.759 389.972 147.972 390.447 148.062C390.921 148.153 391.391 148.116 391.797 147.958C392.203 147.8 392.527 147.526 392.727 147.173C392.861 146.938 392.936 146.674 392.95 146.395C392.964 146.116 392.915 145.828 392.808 145.547C392.7 145.266 392.535 144.998 392.322 144.759C392.109 144.519 391.852 144.312 391.567 144.15Z" fill="#665E95"/>
<path d="M322.874 265.16C322.443 264.915 321.963 264.781 321.493 264.775C321.023 264.769 320.585 264.89 320.235 265.124C319.885 265.358 319.638 265.694 319.526 266.09C319.414 266.485 319.442 266.922 319.606 267.345C319.769 267.768 320.062 268.158 320.446 268.466C320.83 268.774 321.289 268.986 321.764 269.074C322.239 269.163 322.709 269.125 323.114 268.964C323.52 268.804 323.842 268.528 324.041 268.173C324.306 267.699 324.332 267.116 324.113 266.551C323.895 265.986 323.449 265.486 322.874 265.16Z" fill="#665E95"/>
<path d="M357.226 204.645C356.794 204.397 356.31 204.26 355.837 204.251C355.363 204.243 354.922 204.363 354.568 204.597C354.214 204.832 353.964 205.169 353.85 205.566C353.735 205.963 353.761 206.403 353.925 206.829C354.089 207.255 354.382 207.649 354.768 207.959C355.155 208.27 355.616 208.484 356.094 208.574C356.573 208.663 357.046 208.625 357.454 208.464C357.862 208.303 358.187 208.026 358.387 207.668C358.52 207.433 358.596 207.169 358.61 206.89C358.623 206.611 358.575 206.323 358.467 206.042C358.359 205.761 358.194 205.493 357.981 205.254C357.768 205.014 357.512 204.807 357.226 204.645Z" fill="#665E95"/>
<path d="M321.648 224.456C321.218 224.21 320.738 224.073 320.267 224.065C319.797 224.056 319.358 224.175 319.007 224.407C318.655 224.639 318.406 224.974 318.291 225.368C318.176 225.762 318.201 226.199 318.362 226.622C318.524 227.046 318.814 227.437 319.197 227.747C319.58 228.056 320.037 228.27 320.512 228.361C320.987 228.452 321.458 228.416 321.864 228.258C322.271 228.1 322.595 227.826 322.796 227.472C322.931 227.239 323.008 226.976 323.023 226.697C323.038 226.419 322.991 226.132 322.884 225.851C322.778 225.571 322.613 225.303 322.401 225.064C322.189 224.825 321.933 224.618 321.648 224.456Z" fill="#665E95"/>
<path d="M247.228 226.934C248.43 227.616 249.858 227.369 250.419 226.381C250.979 225.394 250.46 224.04 249.258 223.358C248.057 222.676 246.628 222.924 246.068 223.911C245.507 224.899 246.027 226.252 247.228 226.934Z" fill="#665E95"/>
<path d="M214.912 283.863C214.479 283.615 213.996 283.478 213.523 283.47C213.049 283.461 212.608 283.582 212.254 283.816C211.9 284.05 211.65 284.387 211.536 284.784C211.421 285.182 211.447 285.621 211.611 286.047C211.775 286.473 212.068 286.867 212.454 287.177C212.841 287.488 213.302 287.702 213.78 287.792C214.259 287.882 214.732 287.843 215.14 287.682C215.548 287.521 215.873 287.244 216.073 286.886C216.338 286.411 216.365 285.827 216.148 285.261C215.931 284.695 215.487 284.193 214.912 283.863Z" fill="#665E95"/>
<path d="M178.53 347.954C179.732 348.636 181.16 348.389 181.721 347.401C182.281 346.414 181.762 345.06 180.56 344.378C179.359 343.696 177.93 343.944 177.37 344.931C176.809 345.919 177.329 347.272 178.53 347.954Z" fill="#665E95"/>
<path d="M146.214 404.883C145.784 404.639 145.304 404.505 144.834 404.498C144.365 404.492 143.928 404.613 143.578 404.846C143.227 405.079 142.98 405.414 142.867 405.809C142.754 406.203 142.781 406.639 142.943 407.062C143.105 407.485 143.396 407.875 143.779 408.184C144.162 408.492 144.62 408.705 145.094 408.796C145.568 408.886 146.038 408.85 146.444 408.691C146.85 408.533 147.174 408.26 147.375 407.906C147.51 407.672 147.587 407.407 147.602 407.128C147.616 406.849 147.568 406.56 147.46 406.279C147.352 405.998 147.187 405.73 146.973 405.49C146.759 405.251 146.501 405.044 146.214 404.883Z" fill="#665E95"/>
<path d="M179.322 303.667C178.891 303.423 178.411 303.289 177.942 303.283C177.473 303.276 177.035 303.397 176.685 303.63C176.335 303.863 176.088 304.199 175.975 304.593C175.862 304.988 175.888 305.424 176.051 305.846C176.213 306.269 176.504 306.66 176.887 306.968C177.27 307.277 177.727 307.49 178.202 307.58C178.676 307.67 179.146 307.634 179.552 307.476C179.958 307.317 180.282 307.044 180.482 306.69C180.617 306.456 180.695 306.192 180.709 305.913C180.724 305.633 180.676 305.345 180.568 305.064C180.46 304.782 180.294 304.514 180.08 304.275C179.867 304.035 179.609 303.829 179.322 303.667Z" fill="#665E95"/>
<path d="M281.574 166.429C282.776 167.111 284.204 166.864 284.765 165.876C285.326 164.889 284.806 163.535 283.604 162.853C282.403 162.171 280.974 162.419 280.414 163.406C279.853 164.394 280.373 165.747 281.574 166.429Z" fill="#665E95"/>
<path d="M317.945 102.358C317.515 102.114 317.034 101.98 316.565 101.973C316.096 101.966 315.659 102.087 315.308 102.321C314.958 102.554 314.711 102.889 314.598 103.283C314.485 103.678 314.512 104.114 314.674 104.537C314.836 104.96 315.127 105.35 315.51 105.659C315.893 105.967 316.35 106.18 316.825 106.27C317.299 106.361 317.769 106.324 318.175 106.166C318.581 106.008 318.905 105.735 319.106 105.381C319.375 104.907 319.404 104.322 319.186 103.755C318.968 103.188 318.522 102.685 317.945 102.358Z" fill="#665E95"/>
<path d="M216.163 324.58C215.732 324.336 215.252 324.202 214.783 324.196C214.314 324.189 213.876 324.31 213.526 324.543C213.176 324.777 212.929 325.112 212.816 325.506C212.703 325.901 212.729 326.337 212.892 326.76C213.054 327.182 213.345 327.573 213.728 327.881C214.111 328.19 214.568 328.403 215.043 328.493C215.517 328.583 215.987 328.547 216.393 328.389C216.799 328.23 217.123 327.957 217.323 327.603C217.457 327.369 217.532 327.104 217.546 326.825C217.56 326.546 217.512 326.258 217.404 325.977C217.296 325.697 217.131 325.429 216.918 325.189C216.705 324.95 216.448 324.743 216.163 324.58Z" fill="#665E95"/>
<path d="M354.75 123.25C354.319 123.006 353.839 122.872 353.37 122.866C352.901 122.859 352.463 122.98 352.113 123.213C351.763 123.446 351.516 123.782 351.403 124.176C351.29 124.57 351.316 125.007 351.479 125.429C351.641 125.852 351.932 126.243 352.315 126.551C352.698 126.86 353.155 127.073 353.63 127.163C354.104 127.253 354.574 127.217 354.98 127.059C355.386 126.9 355.71 126.627 355.91 126.273C356.18 125.799 356.209 125.214 355.991 124.647C355.773 124.081 355.327 123.578 354.75 123.25Z" fill="#665E95"/>
<path d="M286.057 244.261C285.627 244.016 285.146 243.882 284.676 243.876C284.206 243.869 283.769 243.991 283.418 244.225C283.068 244.459 282.822 244.795 282.71 245.19C282.597 245.586 282.625 246.022 282.789 246.445C282.952 246.869 283.245 247.259 283.629 247.567C284.014 247.874 284.472 248.086 284.947 248.175C285.422 248.264 285.892 248.225 286.297 248.065C286.703 247.904 287.025 247.629 287.224 247.274C287.489 246.799 287.515 246.216 287.296 245.652C287.078 245.087 286.632 244.587 286.057 244.261Z" fill="#665E95"/>
<path d="M320.409 183.746C319.977 183.497 319.493 183.36 319.02 183.352C318.546 183.344 318.105 183.464 317.751 183.698C317.397 183.932 317.147 184.269 317.033 184.667C316.918 185.064 316.945 185.504 317.108 185.93C317.272 186.356 317.565 186.749 317.952 187.06C318.338 187.37 318.799 187.584 319.278 187.674C319.756 187.764 320.229 187.726 320.637 187.565C321.045 187.403 321.37 187.126 321.57 186.769C321.839 186.294 321.868 185.71 321.65 185.143C321.433 184.576 320.986 184.073 320.409 183.746Z" fill="#665E95"/>
<path d="M181.816 385.086C181.386 384.841 180.906 384.707 180.437 384.701C179.967 384.694 179.53 384.815 179.18 385.048C178.83 385.282 178.583 385.617 178.47 386.011C178.357 386.406 178.383 386.842 178.545 387.265C178.708 387.687 178.999 388.078 179.382 388.386C179.764 388.695 180.222 388.908 180.696 388.998C181.171 389.088 181.641 389.052 182.047 388.894C182.453 388.735 182.776 388.462 182.977 388.108C183.246 387.634 183.275 387.049 183.058 386.482C182.84 385.916 182.393 385.413 181.816 385.086Z" fill="#665E95"/>
<path d="M282.801 207.133C284.003 207.815 285.431 207.567 285.992 206.58C286.552 205.592 286.032 204.239 284.831 203.557C283.629 202.875 282.201 203.122 281.64 204.11C281.08 205.097 281.599 206.451 282.801 207.133Z" fill="#665E95"/>
<path d="M319.201 143.065C318.771 142.821 318.291 142.687 317.821 142.681C317.352 142.674 316.915 142.795 316.565 143.028C316.214 143.261 315.967 143.596 315.854 143.991C315.741 144.385 315.768 144.822 315.93 145.244C316.092 145.667 316.383 146.058 316.766 146.366C317.149 146.675 317.607 146.888 318.081 146.978C318.555 147.068 319.025 147.032 319.431 146.874C319.837 146.715 320.161 146.442 320.362 146.088C320.495 145.854 320.571 145.589 320.585 145.31C320.598 145.031 320.55 144.743 320.442 144.462C320.334 144.182 320.169 143.914 319.956 143.674C319.743 143.434 319.487 143.228 319.201 143.065Z" fill="#665E95"/>
<path d="M250.509 264.075C250.078 263.831 249.598 263.697 249.129 263.691C248.66 263.684 248.222 263.805 247.872 264.038C247.522 264.271 247.275 264.607 247.162 265.001C247.049 265.396 247.075 265.832 247.238 266.255C247.4 266.677 247.691 267.068 248.074 267.376C248.457 267.685 248.914 267.898 249.389 267.988C249.863 268.078 250.333 268.042 250.739 267.884C251.145 267.725 251.469 267.452 251.669 267.098C251.939 266.624 251.968 266.039 251.75 265.472C251.532 264.906 251.086 264.403 250.509 264.075Z" fill="#665E95"/>
</g>
<defs>
<clipPath id="clip0_8_2383">
<rect width="529.5" height="421.555" fill="white" transform="translate(208.107) rotate(29.5818)"/>
</clipPath>
</defs>
</svg>
