<?xml version="1.0" standalone="no"?>
<!DOCTYPE svg PUBLIC "-//W3C//DTD SVG 20010904//EN"
 "http://www.w3.org/TR/2001/REC-SVG-20010904/DTD/svg10.dtd">
<svg version="1.0" xmlns="http://www.w3.org/2000/svg"
 width="880.000000pt" height="880.000000pt" viewBox="0 0 880.000000 880.000000"
 preserveAspectRatio="xMidYMid meet">
<metadata>
Created by potrace 1.14, written by Peter Selinger 2001-2017
</metadata>
<g transform="translate(0.000000,880.000000) scale(0.100000,-0.100000)"
fill="#000000" stroke="none">
<path d="M629 8073 c-91 -47 -147 -161 -121 -248 8 -26 663 -1662 1167 -2915
609 -1514 1395 -3482 1404 -3515 48 -176 -67 -368 -253 -420 -85 -25 -252 -17
-322 14 -63 28 -126 90 -156 156 -18 39 -23 67 -22 125 1 66 7 90 52 200 76
188 95 294 89 505 -4 126 -10 189 -25 245 -74 274 -193 468 -395 645 -312 276
-764 369 -1174 244 -113 -35 -266 -114 -371 -194 -165 -124 -275 -259 -368
-450 -176 -363 -160 -792 43 -1142 183 -315 479 -526 843 -599 77 -16 201 -18
1284 -21 840 -3 1215 -1 1250 7 59 13 103 40 134 84 12 17 234 561 494 1210
430 1076 471 1184 471 1235 -1 50 -97 297 -933 2386 -512 1282 -941 2346 -952
2367 -11 20 -34 46 -50 58 -70 51 -39 50 -1072 50 l-962 0 -55 -27z"/>
<path d="M3360 8073 c-78 -41 -113 -96 -118 -182 l-4 -67 395 -985 c217 -541
730 -1821 1140 -2844 410 -1023 865 -2157 1011 -2520 184 -461 273 -671 294
-696 99 -118 295 -94 359 42 11 24 229 564 484 1199 440 1097 463 1158 462
1215 -1 55 -78 254 -932 2390 -513 1282 -944 2350 -959 2375 -19 31 -43 52
-81 72 l-53 28 -973 0 -973 0 -52 -27z"/>
<path d="M7415 8090 c-297 -47 -527 -162 -724 -362 -161 -165 -255 -332 -319
-567 -24 -88 -26 -113 -26 -291 0 -168 3 -207 22 -283 106 -423 406 -751 810
-887 124 -41 245 -60 392 -60 255 0 470 65 680 204 505 337 690 999 430 1543
-67 142 -138 242 -250 353 -175 175 -380 284 -625 335 -96 20 -307 28 -390 15z"/>
</g>
</svg>
