<?xml version="1.0" encoding="UTF-8"?><svg id="Layer_2" xmlns="http://www.w3.org/2000/svg" xmlns:xlink="http://www.w3.org/1999/xlink" viewBox="0 0 55.27 46.51"><defs><style>.cls-1{fill:url(#linear-gradient);}.cls-2{fill:url(#linear-gradient-3);}.cls-3{fill:url(#linear-gradient-2);}</style><linearGradient id="linear-gradient" x1="-25.27" y1="-38.27" x2="62.8" y2="49.8" gradientTransform="matrix(1, 0, 0, 1, 0, 0)" gradientUnits="userSpaceOnUse"><stop offset="0" stop-color="#40367a"/><stop offset=".63" stop-color="#185a75"/><stop offset="1" stop-color="#007173"/></linearGradient><linearGradient id="linear-gradient-2" x1="-11.89" y1="-51.66" x2="76.19" y2="36.41" xlink:href="#linear-gradient"/><linearGradient id="linear-gradient-3" x1="-38.07" y1="-25.47" x2="50" y2="62.6" xlink:href="#linear-gradient"/></defs><g id="Layer_1-2"><g id="Layer_2-2"><g id="Layer_1-2"><path class="cls-1" d="M46.31,31.12l-5.82,14.51c-.28,.72-1.09,1.07-1.81,.79-.36-.14-.65-.43-.79-.79L20.38,1.96c-.3-.73,.05-1.56,.78-1.86,.16-.07,.34-.1,.52-.11h11.66c.57,0,1.08,.35,1.29,.89l11.66,29.15c.14,.34,.15,.73,.02,1.08Z"/><circle class="cls-3" cx="47.52" cy="7.75" r="7.75"/><path class="cls-2" d="M29.13,30.04L17.47,.89C17.26,.35,16.73,0,16.15,0H4.49c-.78,.01-1.41,.66-1.4,1.44,0,.18,.04,.35,.11,.52L19.23,41.91c.41,1.15-.2,2.41-1.35,2.82-.24,.09-.5,.13-.75,.13h-.66c-1.06,0-1.92-.85-1.93-1.91,0-.3,.07-.6,.2-.87,.49-1.02,.76-2.14,.77-3.27,.03-4.28-3.41-7.78-7.69-7.81S.03,34.4,0,38.68c-.03,4.28,3.41,7.78,7.69,7.81h14.25c.6,.04,1.16-.31,1.38-.87l5.8-14.51c.14-.35,.14-.73,0-1.08Z"/></g></g></g></svg>