<svg width="399" height="271" viewBox="0 0 399 271" fill="none" xmlns="http://www.w3.org/2000/svg">
<path d="M0.483749 88.2965C3.9784 93.3162 4.58458 89.4878 6.00822 86.6679C12.7472 73.4174 18.2891 59.1847 26.9583 47.3071C34.4747 36.7965 44.0316 27.9119 55.0565 21.1857C66.0814 14.4594 78.3473 10.0298 91.1195 8.16233C167.606 -4.43217 247.769 43.8908 296.67 99.2703C311.013 115.104 323.348 132.652 333.394 151.516C344.314 173.221 351.878 199.515 349.21 223.976C348.616 230.225 347.223 236.372 345.065 242.267C339.37 234.429 334.649 226.25 328.862 218.654C323.074 211.057 317.628 204.098 311.938 196.897C307.124 189.948 301.696 183.447 295.72 177.471C291.378 173.718 288.87 176.704 290.421 181.732C292.709 187.012 295.745 191.934 299.436 196.346C310.388 212.768 320.274 229.88 329.031 247.574C331.268 252.047 332.961 256.771 335.119 261.263C336.618 264.371 338.285 269.051 341.82 270.264C348.022 272.568 352.046 262.892 354.222 258.895C363.72 241.808 374.981 225.764 387.822 211.028C392.081 206.082 400.155 199.794 398.466 192.415C396.776 185.036 385.366 197.303 383.53 199.468C378.08 205.715 373.29 212.673 368.265 219.353C365.979 222.352 356.318 234.978 353.796 238.522C354.789 226.887 354.997 223.829 355.034 216.579C356.958 156.333 315.54 104.033 271.608 67.4388C257.888 56.0674 243.351 45.7203 228.117 36.4812C216.709 29.4604 204.821 23.253 192.541 17.9052C163.944 5.62491 132.853 -1.4217 101.832 1.61124C93.0004 2.55287 84.2782 4.33419 75.7831 6.93113C57.7313 12.6845 41.5823 23.2514 29.0696 37.4972C23.0221 44.0908 17.6414 51.2677 13.0063 58.9228C10.8708 62.7411 -2.37109 84.245 0.483749 88.2965Z" fill="#007173"/>
</svg>
