<?xml version="1.0" encoding="UTF-8"?><svg id="Layer_2" xmlns="http://www.w3.org/2000/svg" viewBox="0 0 76.35 23.58"><g id="_ÎÓÈ_1"><path d="M60.4,11.07c.05,.11,.08,.23,.09,.37,0,.27-.02,.75-.24,.94-.36,.29-1.18-.02-1.56-.12-1.93-.47-3.83-1.02-5.77-1.42-.61-.13-4.94-1.31-5.22-.61-.23,.58,6.13,2.03,6.4,2.11,3.02,.8,6.15,1.61,9.11,2.74,.82,.31,1.64,.65,2.43,1.03,.45,.21,.89,.44,1.33,.68,.22,.12,.69,.42,.89,.13,.4-.6-1.3-1.68-1.63-1.97-.55-.48-1.12-.94-1.66-1.42-3.19-2.8-6.38-5.62-9.76-8.2-1.12-.86-2.2-1.75-3.41-2.49-.65-.4-2.35-1.32-1.86-2.35,.39-.82,2-.39,2.63-.13,.86,.36,1.53,1.03,2.27,1.57,5.18,3.78,9.97,8.07,14.6,12.51,2.52,2.42,5.06,4.83,7.23,7.58,.18,.23,.08,1.03-.14,1.17-.64,.41-1.33,.6-2.18,.15-5.51-2.91-11.14-5.75-17.07-7.71-3.67-1.22-7.42-2.19-11.09-3.41-.4-.13-.8-.28-1.2-.41-.6-.2-1.56-.42-1.81-1.08-.1-.27,.21-.34,.4-.39,.31-.07,.6-.19,.88-.32,.4-.18-.03-.46-.27-.49-3.57-.43-7.14-.92-10.73-1.24-9.26-.82-18.44,1.05-27.48,2.87-1.06,.21-2.11,.46-3.15,.74-.66,.17-1.8,.52-2.3-.16-.62-.84,1.4-1.17,1.43-1.89,.02-.57-.4-1.1,.15-1.56,.43-.36,.86-.13,1.27,.1,.76,.42,1.54-.57,2.23-.83,1.01-.39,2.32-.41,3.39-.57,2.65-.42,5.3-.79,7.97-1.08,8.22-.91,17.27-1.42,25.47,0,5.48,.95,11.02,1.79,16.21,3.98,.63,.26,1.29,.53,1.86,.9,.14,.09,.24,.19,.3,.32Z"/></g></svg>