<?xml version="1.0" encoding="utf-8"?>
<!-- Generator: Adobe Illustrator 26.3.1, SVG Export Plug-In . SVG Version: 6.00 Build 0)  -->
<svg version="1.1" id="Layer_1" xmlns="http://www.w3.org/2000/svg" xmlns:xlink="http://www.w3.org/1999/xlink" x="0px" y="0px"
	 viewBox="0 0 2500 2500" style="enable-background:new 0 0 2500 2500;" xml:space="preserve">
<style type="text/css">
	.st0{fill:#FFFFFF;stroke:#000000;stroke-miterlimit:10;}
	.st1{filter:url(#Adobe_OpacityMaskFilter);}
	.st2{fill:#FFFFFF;}
	.st3{mask:url(#b_00000016767540901839828750000011868015905121344902_);}
	.st4{fill:none;stroke:#4A4A4A;stroke-width:62.8931;stroke-miterlimit:31.4465;}
	.st5{fill-rule:evenodd;clip-rule:evenodd;fill:#4A4A4A;}
</style>
<rect y="0" class="st0" width="2500" height="2500"/>
<defs>
	<filter id="Adobe_OpacityMaskFilter" filterUnits="userSpaceOnUse" x="-31.4" y="-31.4" width="2562.9" height="2562.9">
		<feColorMatrix  type="matrix" values="1 0 0 0 0  0 1 0 0 0  0 0 1 0 0  0 0 0 1 0"/>
	</filter>
</defs>
<mask maskUnits="userSpaceOnUse" x="-31.4" y="-31.4" width="2562.9" height="2562.9" id="b_00000016767540901839828750000011868015905121344902_">
	<g class="st1">
		<path id="a_00000138548804284082902150000000437793998773296056_" class="st2" d="M0,0h2500v2500H0V0z"/>
	</g>
</mask>
<g class="st3">
	<g>
		<path id="a_00000121253479957013758040000006837816874520814994_" class="st4" d="M0,0h2500v2500H0V0z"/>
	</g>
	<path class="st5" d="M348.1,1803.6c-34.8,0-57.7,18.7-57.7,43.6c0,22.1,13.6,36.8,44.4,45.3c28,7.9,34,11.9,34,24.3
		c0,11.3-10.5,18.1-26.6,18.1c-15.3,0-29.2-5.9-40.8-14.7l-18.1,20.4c13.9,12.5,34,21.2,59.7,21.2c34.2,0,63.1-16.4,63.1-47.5
		c0-26.6-17.3-39.1-47.8-47.3c-25.5-7.1-31.4-11.6-31.4-21.5c0-9.1,8.2-15,22.6-15c13.3,0,25.2,4.2,37.6,12.2l14.2-21.2
		C387.2,1810.4,369.7,1803.6,348.1,1803.6L348.1,1803.6z M508.6,1927.3l12.7,23.2c-10.8,7.6-24.3,11.3-37.6,11.3
		c-29.4-0.3-45-17-45-49v-79h-23.5v-26h23.5v-33.1l36.2-4.2v37.4h34.8l-3.7,26h-31.1v78.1c0,14.7,4.8,20.7,15.8,20.7
		C496.4,1932.6,502.1,1930.9,508.6,1927.3z M662.9,1807.8l-48.7,150.3c-11.3,35.1-33.4,57.7-77.8,61.1l-3.7-26.3
		c29.7-4.5,39.3-14.2,47.8-35.4h-12.5l-47.5-149.7H559l32.5,125.7l34-125.7L662.9,1807.8z M720.3,1961.8c8.3,0,16.5-1.7,24.1-5.1
		l-7.6-25.5c-2.5,0.8-5.1,1.4-8.5,1.4c-5.9,0-8.5-3.4-8.5-10.5v-178.3l-36.2,4v175.5C683.5,1947.9,697.4,1961.8,720.3,1961.8
		L720.3,1961.8z M891.3,1879.2c0,4.8-0.6,10.8-0.8,14.7h-94c2.5,30.6,17,40.5,36.8,40.5c13.3,0,24.3-4.2,37.4-13.3l15,20.7
		c-14.7,11.9-32.8,20.1-55.5,20.1c-46.4,0-71.3-30.8-71.3-78.1c0-45.6,24.1-80.1,66.5-80.1C867.2,1803.6,891.3,1831.9,891.3,1879.2
		L891.3,1879.2z M855.3,1870.4v-1.7c0-24.6-8.8-39.3-29.2-39.3c-17,0-27.7,11.3-29.7,41H855.3z M1013.5,1743.9l36.2,4v209.7h-32
		l-2.5-19c-9.1,13.6-23.5,23.2-42.7,23.2c-37.4,0-56.9-31.4-56.9-79c0-46.1,23.2-79.2,60.3-79.2c15.8,0,28.3,6.8,37.6,16.1V1743.9z
		 M982.7,1934.3c13.3,0,22.4-6.5,30.8-19.2v-68.5c-7.9-9.6-16.4-15.8-28.6-15.8c-18.7,0-31.1,15.8-31.1,51.8
		C953.8,1921,964.8,1934.3,982.7,1934.3L982.7,1934.3z M349.4,2086.6c-43,0-69.9,32.5-69.9,80.4s26.9,77.8,70.2,77.8
		c19.2,0,34.8-6.2,48.4-17.3l-16.1-22.9c-11,7.1-19,10.8-30.3,10.8c-20.4,0-33.7-12.7-33.7-49c0-35.9,12.7-51.2,33.7-51.2
		c11.3,0,20.4,3.4,30.3,10.8l16.1-21.8C383.9,2092,368.9,2086.6,349.4,2086.6L349.4,2086.6z M485.5,2086.6c44.2,0,70.2,30,70.2,79
		c0,47.3-26.3,79.2-70.5,79.2s-70.5-30-70.5-79.2C414.7,2118.6,441.1,2086.6,485.5,2086.6z M485.5,2114.1
		c-21.2,0-32.5,16.1-32.5,51.5c0,35.9,11,51.8,32.3,51.8c21.2,0,32.3-16.1,32.3-51.8S506.4,2114.1,485.5,2114.1z M748.4,2086.6
		c-19.8,0-33.7,9.6-45,25.2c-5.7-15.8-18.7-25.2-36.2-25.2c-19,0-32.5,8.8-43.3,23.8l-2.8-19.5h-31.4v149.7h36.2v-104.2
		c8.2-13.9,15.8-22.6,28.6-22.6c8.8,0,16.4,5.4,16.4,24.1v102.7h36.2v-104.2c8.2-13.9,15.8-22.6,28.3-22.6c9.1,0,16.4,5.4,16.4,24.1
		v102.7h36.2v-108.4C788.1,2103.9,772.2,2086.6,748.4,2086.6L748.4,2086.6z M907.8,2086.6c39.1,0,55.5,30.8,55.5,78.7
		c0,45.8-21.2,79.5-59.2,79.5c-15.3,0-28.3-5.4-37.6-16.4v69.9l-36.2,4v-211.4h31.7l2,18.4C875.8,2093.7,891.6,2086.6,907.8,2086.6
		L907.8,2086.6z M893.9,2217.1c19.8,0,31.4-15.3,31.4-51.5c0-37.9-10.2-51.8-28.3-51.8c-12.7,0-23.5,8.8-30.6,20.4v67.4
		C873.5,2212,882.6,2217.1,893.9,2217.1z M1060,2086.6c44.2,0,70.2,30,70.2,79c0,47.3-26.3,79.2-70.5,79.2
		c-44.2,0-70.5-30-70.5-79.2C989.3,2118.6,1015.6,2086.6,1060,2086.6z M1060,2114.1c-21.2,0-32.5,16.1-32.5,51.5
		c0,35.9,11,51.8,32.3,51.8c21.2,0,32.3-16.1,32.3-51.8S1081,2114.1,1060,2114.1L1060,2114.1z M1244,2086.6c-19,0-34,8.8-45.6,23.8
		l-2.8-19.5h-31.4v149.7h36.2v-104.2c8.8-13.9,18.4-22.6,31.4-22.6c11.3,0,18.4,5.4,18.4,24.1v102.7h36.2v-108.4
		C1286.4,2103.6,1270.9,2086.6,1244,2086.6L1244,2086.6z M1451.4,2162.2c0,4.8-0.6,10.8-0.8,14.7h-94c2.5,30.6,17,40.5,36.8,40.5
		c13.3,0,24.3-4.2,37.4-13.3l15,20.7c-14.7,11.9-32.8,20.1-55.5,20.1c-46.4,0-71.3-30.8-71.3-78.1c0-45.6,24.1-80.1,66.5-80.1
		C1427.4,2086.6,1451.4,2114.9,1451.4,2162.2L1451.4,2162.2z M1415.5,2153.4v-1.7c0-24.6-8.8-39.3-29.2-39.3
		c-17,0-27.7,11.3-29.7,41H1415.5z M1563.8,2086.6c-19,0-34,8.8-45.6,23.8l-2.8-19.5H1484v149.7h36.2v-104.2
		c8.8-13.9,18.4-22.6,31.4-22.6c11.3,0,18.4,5.4,18.4,24.1v102.7h36.2v-108.4C1606.3,2103.6,1590.7,2086.6,1563.8,2086.6
		L1563.8,2086.6z M1721.4,2210.3c-6.5,3.7-12.2,5.4-17.8,5.4c-11,0-15.8-5.9-15.8-20.7v-78.1h31.1l3.7-26h-34.8v-37.4l-36.2,4.2
		v33.1h-23.5v26h23.5v79c0,32,15.6,48.7,45,49c13.3,0,26.9-3.7,37.6-11.3L1721.4,2210.3z M1801.8,2086.6
		c-34.8,0-57.7,18.7-57.7,43.6c0,22.1,13.6,36.8,44.4,45.3c28,7.9,34,11.9,34,24.3c0,11.3-10.5,18.1-26.6,18.1
		c-15.3,0-29.2-5.9-40.8-14.7l-18.1,20.4c13.9,12.5,34,21.2,59.7,21.2c34.2,0,63.1-16.4,63.1-47.5c0-26.6-17.3-39.1-47.8-47.3
		c-25.5-7.1-31.4-11.6-31.4-21.5c0-9.1,8.2-15,22.6-15c13.3,0,25.2,4.2,37.6,12.2l14.2-21.2
		C1840.9,2093.4,1823.3,2086.6,1801.8,2086.6L1801.8,2086.6z M627.4,685.5L342.8,862.4l284.6,180l-29.1,36.2L301.9,893.1V831
		l299.5-185.5 M2089.6,823.9v61.3l-296.4,185.5l-29.1-38.5L2048,854.6l-283.8-178.5l25.2-38.5"/>
</g>
</svg>
